<?xml version="1.0" encoding="utf-8"?>
<!-- Generator: Adobe Illustrator 19.1.1, SVG Export Plug-In . SVG Version: 6.00 Build 0)  -->
<svg version="1.1" id="icons" xmlns="http://www.w3.org/2000/svg" xmlns:xlink="http://www.w3.org/1999/xlink" x="0px" y="0px"
	 width="128px" height="128px" viewBox="0 0 128 128" style="enable-background:new 0 0 128 128;" xml:space="preserve">
<style type="text/css">
	.st0{clip-path:url(#XMLID_2_);}
	.st1{fill:#CBD1D3;}
	.st2{fill:none;stroke:#303338;stroke-width:8;stroke-linecap:round;stroke-linejoin:round;stroke-miterlimit:10;}
	.st3{clip-path:url(#XMLID_3_);}
	.st4{clip-path:url(#XMLID_4_);}
	.st5{clip-path:url(#XMLID_5_);}
	.st6{clip-path:url(#XMLID_6_);}
	.st7{fill:#303338;}
	.st8{clip-path:url(#XMLID_7_);}
	.st9{clip-path:url(#XMLID_8_);}
	.st10{clip-path:url(#XMLID_9_);}
	.st11{clip-path:url(#XMLID_10_);}
	.st12{clip-path:url(#XMLID_11_);}
	.st13{clip-path:url(#XMLID_12_);}
	.st14{fill:none;stroke:#303338;stroke-width:8;stroke-linecap:round;stroke-miterlimit:10;}
	.st15{clip-path:url(#XMLID_13_);}
	.st16{clip-path:url(#XMLID_14_);}
	.st17{clip-path:url(#XMLID_15_);}
	.st18{clip-path:url(#XMLID_16_);}
	.st19{clip-path:url(#XMLID_17_);}
	.st20{clip-path:url(#XMLID_18_);}
	.st21{clip-path:url(#XMLID_19_);}
	.st22{clip-path:url(#XMLID_20_);}
	.st23{clip-path:url(#XMLID_21_);}
	.st24{clip-path:url(#XMLID_22_);}
	.st25{clip-path:url(#XMLID_23_);}
	.st26{clip-path:url(#XMLID_24_);}
	.st27{clip-path:url(#XMLID_25_);}
	.st28{clip-path:url(#XMLID_26_);}
	.st29{clip-path:url(#XMLID_27_);}
	.st30{clip-path:url(#XMLID_28_);}
	.st31{clip-path:url(#XMLID_29_);}
	.st32{clip-path:url(#XMLID_30_);}
	.st33{clip-path:url(#XMLID_31_);}
	.st34{clip-path:url(#XMLID_32_);}
	.st35{clip-path:url(#XMLID_33_);}
	.st36{clip-path:url(#XMLID_34_);}
	.st37{clip-path:url(#XMLID_35_);}
</style>
<g id="XMLID_11647_">
	<defs>
		<rect id="XMLID_11648_" width="128" height="128"/>
	</defs>
	<clipPath id="XMLID_2_">
		<use xlink:href="#XMLID_11648_"  style="overflow:visible;"/>
	</clipPath>
	<g id="XMLID_11649_" class="st0">
		<path id="XMLID_11662_" class="st1" d="M32,52c-11,0-20,9-20,20s9,20,20,20h44c22.1,0,40-17.9,40-40S98.1,12,76,12S36,29.9,36,52
			H32z"/>
		<path id="XMLID_11661_" class="st2" d="M32,52c-11,0-20,9-20,20s9,20,20,20h44c22.1,0,40-17.9,40-40S98.1,12,76,12S36,29.9,36,52
			H32z"/>
		<g id="XMLID_11650_">
			<circle id="XMLID_11660_" class="st7" cx="44" cy="116" r="4"/>
			<circle id="XMLID_11659_" class="st7" cx="56" cy="116" r="4"/>
			<circle id="XMLID_11658_" class="st7" cx="68" cy="116" r="4"/>
			<circle id="XMLID_11657_" class="st7" cx="80" cy="116" r="4"/>
			<circle id="XMLID_11656_" class="st7" cx="92" cy="116" r="4"/>
			<circle id="XMLID_11655_" class="st7" cx="36" cy="104" r="4"/>
			<circle id="XMLID_11654_" class="st7" cx="48" cy="104" r="4"/>
			<circle id="XMLID_11653_" class="st7" cx="60" cy="104" r="4"/>
			<circle id="XMLID_11652_" class="st7" cx="72" cy="104" r="4"/>
			<circle id="XMLID_11651_" class="st7" cx="84" cy="104" r="4"/>
		</g>
	</g>
</g>
</svg>
