<?xml version="1.0" encoding="utf-8"?>
<!-- Generator: Adobe Illustrator 19.1.1, SVG Export Plug-In . SVG Version: 6.00 Build 0)  -->
<svg version="1.1" id="icons" xmlns="http://www.w3.org/2000/svg" xmlns:xlink="http://www.w3.org/1999/xlink" x="0px" y="0px"
	 width="32px" height="32px" viewBox="0 0 32 32" style="enable-background:new 0 0 32 32;" xml:space="preserve">
<style type="text/css">
	.st0{clip-path:url(#XMLID_2_);}
	.st1{fill:none;stroke:#303338;stroke-width:2;stroke-linecap:round;stroke-linejoin:round;stroke-miterlimit:10;}
	.st2{clip-path:url(#XMLID_3_);}
	.st3{clip-path:url(#XMLID_4_);}
	.st4{fill:#303338;}
	.st5{clip-path:url(#XMLID_5_);}
	.st6{clip-path:url(#XMLID_6_);}
	.st7{clip-path:url(#XMLID_7_);}
	.st8{clip-path:url(#XMLID_8_);}
	.st9{clip-path:url(#XMLID_9_);}
	.st10{clip-path:url(#XMLID_10_);}
	.st11{clip-path:url(#XMLID_11_);}
	.st12{clip-path:url(#XMLID_12_);}
	.st13{clip-path:url(#XMLID_13_);}
	.st14{clip-path:url(#XMLID_14_);}
	.st15{clip-path:url(#XMLID_15_);}
	.st16{clip-path:url(#XMLID_16_);}
	.st17{clip-path:url(#XMLID_17_);}
	.st18{clip-path:url(#XMLID_18_);}
	.st19{clip-path:url(#XMLID_19_);}
	.st20{clip-path:url(#XMLID_20_);}
	.st21{clip-path:url(#XMLID_21_);}
	.st22{clip-path:url(#XMLID_22_);}
	.st23{clip-path:url(#XMLID_23_);}
	.st24{clip-path:url(#XMLID_24_);}
	.st25{clip-path:url(#XMLID_25_);}
	.st26{clip-path:url(#XMLID_26_);}
	.st27{clip-path:url(#XMLID_27_);}
	.st28{clip-path:url(#XMLID_28_);}
	.st29{clip-path:url(#XMLID_29_);}
	.st30{clip-path:url(#XMLID_30_);}
	.st31{fill:none;stroke:#303338;stroke-width:2;stroke-linecap:round;stroke-miterlimit:10;}
	.st32{clip-path:url(#XMLID_31_);}
	.st33{clip-path:url(#XMLID_32_);}
	.st34{clip-path:url(#XMLID_33_);}
	.st35{clip-path:url(#XMLID_34_);}
	.st36{clip-path:url(#XMLID_35_);}
	.st37{clip-path:url(#XMLID_36_);}
	.st38{clip-path:url(#XMLID_37_);}
</style>
<g id="XMLID_6725_">
	<defs>
		<rect id="XMLID_4258_" width="32" height="32"/>
	</defs>
	<clipPath id="XMLID_2_">
		<use xlink:href="#XMLID_4258_"  style="overflow:visible;"/>
	</clipPath>
	<g id="XMLID_13673_" class="st0">
		<g id="XMLID_13676_">
			<polyline id="XMLID_13679_" class="st1" points="5,20 12,11 18,20 23,14 27,18 			"/>
			<circle id="XMLID_13678_" class="st1" cx="19" cy="10" r="2"/>
			<path id="XMLID_13677_" class="st1" d="M25,25H7c-1.1,0-2-0.9-2-2V5c0-1.1,0.9-2,2-2h18c1.1,0,2,0.9,2,2v18
				C27,24.1,26.1,25,25,25z"/>
		</g>
		<path id="XMLID_13674_" class="st1" d="M23,25v2c0,1.1-0.9,2-2,2H11c-1.1,0-2-0.9-2-2v-2"/>
	</g>
</g>
</svg>
