<?xml version="1.0" encoding="utf-8"?>
<!-- Generator: Adobe Illustrator 19.1.1, SVG Export Plug-In . SVG Version: 6.00 Build 0)  -->
<svg version="1.1" id="icons" xmlns="http://www.w3.org/2000/svg" xmlns:xlink="http://www.w3.org/1999/xlink" x="0px" y="0px"
	 width="32px" height="32px" viewBox="0 0 32 32" style="enable-background:new 0 0 32 32;" xml:space="preserve">
<style type="text/css">
	.st0{clip-path:url(#XMLID_2_);}
	.st1{fill:#A1A8AF;}
	.st2{fill:#7C8184;}
	.st3{fill:none;stroke:#303338;stroke-width:2;stroke-miterlimit:10;}
	.st4{fill:#303338;}
	.st5{clip-path:url(#XMLID_3_);}
	.st6{clip-path:url(#XMLID_4_);}
	.st7{clip-path:url(#XMLID_5_);}
	.st8{clip-path:url(#XMLID_6_);}
	.st9{clip-path:url(#XMLID_7_);}
	.st10{clip-path:url(#XMLID_8_);}
	.st11{clip-path:url(#XMLID_9_);}
	.st12{clip-path:url(#XMLID_10_);}
	.st13{clip-path:url(#XMLID_11_);}
	.st14{clip-path:url(#XMLID_12_);}
	.st15{clip-path:url(#XMLID_13_);}
	.st16{clip-path:url(#XMLID_14_);}
	.st17{clip-path:url(#XMLID_15_);}
	.st18{clip-path:url(#XMLID_16_);}
	.st19{fill:none;stroke:#303338;stroke-width:2;stroke-linecap:round;stroke-miterlimit:10;}
	.st20{clip-path:url(#XMLID_17_);}
	.st21{fill:#CBD1D3;}
	.st22{fill:none;stroke:#303338;stroke-width:2;stroke-linecap:round;stroke-linejoin:round;stroke-miterlimit:10;}
	.st23{clip-path:url(#XMLID_18_);}
	.st24{clip-path:url(#XMLID_19_);}
	.st25{clip-path:url(#XMLID_20_);}
	.st26{clip-path:url(#XMLID_21_);}
	.st27{clip-path:url(#XMLID_22_);}
	.st28{clip-path:url(#XMLID_23_);}
	.st29{clip-path:url(#XMLID_24_);}
	.st30{clip-path:url(#XMLID_25_);}
	.st31{clip-path:url(#XMLID_26_);}
	.st32{clip-path:url(#XMLID_27_);}
	.st33{clip-path:url(#XMLID_28_);}
	.st34{clip-path:url(#XMLID_29_);}
	.st35{fill:none;stroke:#303338;stroke-miterlimit:10;}
	.st36{clip-path:url(#XMLID_30_);}
	.st37{clip-path:url(#XMLID_31_);}
	.st38{clip-path:url(#XMLID_32_);}
	.st39{clip-path:url(#XMLID_33_);}
	.st40{clip-path:url(#XMLID_34_);}
	.st41{clip-path:url(#XMLID_35_);}
	.st42{clip-path:url(#XMLID_36_);}
	.st43{clip-path:url(#XMLID_37_);}
	.st44{clip-path:url(#XMLID_38_);}
	.st45{clip-path:url(#XMLID_39_);}
	.st46{clip-path:url(#XMLID_40_);}
	.st47{clip-path:url(#XMLID_41_);}
</style>
<g id="XMLID_6888_">
	<defs>
		<rect id="XMLID_4101_" width="32" height="32"/>
	</defs>
	<clipPath id="XMLID_2_">
		<use xlink:href="#XMLID_4101_"  style="overflow:visible;"/>
	</clipPath>
	<g id="XMLID_24825_" class="st0">
		<path id="XMLID_9070_" class="st1" d="M27,27H5c-1.1,0-2-0.9-2-2V7c0-1.1,0.9-2,2-2h22c1.1,0,2,0.9,2,2v18C29,26.1,28.1,27,27,27z
			"/>
		<path id="XMLID_9069_" class="st2" d="M3,10V7c0-1.1,0.9-2,2-2h22c1.1,0,2,0.9,2,2v3H3z"/>
		<path id="XMLID_24837_" class="st3" d="M27,27H5c-1.1,0-2-0.9-2-2V7c0-1.1,0.9-2,2-2h22c1.1,0,2,0.9,2,2v18C29,26.1,28.1,27,27,27
			z"/>
		<g id="XMLID_24833_">
			<circle id="XMLID_24836_" class="st4" cx="7" cy="8" r="1"/>
			<circle id="XMLID_24835_" class="st4" cx="10" cy="8" r="1"/>
			<circle id="XMLID_24834_" class="st4" cx="13" cy="8" r="1"/>
		</g>
		<line id="XMLID_24832_" class="st3" x1="3" y1="11" x2="29" y2="11"/>
		<path id="XMLID_24831_" class="st4" d="M25,9h-8c-0.5,0-1-0.4-1-1v0c0-0.5,0.4-1,1-1h8c0.5,0,1,0.4,1,1v0C26,8.6,25.6,9,25,9z"/>
		<g id="XMLID_24826_">
			<rect id="XMLID_24830_" x="6" y="14" class="st4" width="20" height="2"/>
			<rect id="XMLID_24829_" x="14" y="17" class="st4" width="12" height="7"/>
			<rect id="XMLID_24828_" x="6" y="17" class="st4" width="7" height="2"/>
			<rect id="XMLID_24827_" x="6" y="20" class="st4" width="7" height="4"/>
		</g>
	</g>
</g>
</svg>
