<?xml version="1.0" encoding="utf-8"?>
<!-- Generator: Adobe Illustrator 19.1.1, SVG Export Plug-In . SVG Version: 6.00 Build 0)  -->
<svg version="1.1" id="icons" xmlns="http://www.w3.org/2000/svg" xmlns:xlink="http://www.w3.org/1999/xlink" x="0px" y="0px"
	 width="64px" height="64px" viewBox="0 0 64 64" style="enable-background:new 0 0 64 64;" xml:space="preserve">
<style type="text/css">
	.st0{clip-path:url(#XMLID_2_);}
	.st1{fill:none;stroke:#303338;stroke-width:4;stroke-linecap:round;stroke-linejoin:round;stroke-miterlimit:10;}
	.st2{clip-path:url(#XMLID_3_);}
	.st3{clip-path:url(#XMLID_4_);}
	.st4{fill:#303338;}
	.st5{clip-path:url(#XMLID_5_);}
	.st6{clip-path:url(#XMLID_6_);}
	.st7{clip-path:url(#XMLID_7_);}
	.st8{clip-path:url(#XMLID_8_);}
	.st9{clip-path:url(#XMLID_9_);}
	.st10{clip-path:url(#XMLID_10_);}
	.st11{clip-path:url(#XMLID_11_);}
	.st12{clip-path:url(#XMLID_12_);}
	.st13{clip-path:url(#XMLID_13_);}
	.st14{clip-path:url(#XMLID_14_);}
	.st15{clip-path:url(#XMLID_15_);}
	.st16{clip-path:url(#XMLID_16_);}
	.st17{clip-path:url(#XMLID_17_);}
	.st18{clip-path:url(#XMLID_18_);}
	.st19{clip-path:url(#XMLID_19_);}
	.st20{clip-path:url(#XMLID_20_);}
	.st21{clip-path:url(#XMLID_21_);}
	.st22{clip-path:url(#XMLID_22_);}
	.st23{clip-path:url(#XMLID_23_);}
	.st24{clip-path:url(#XMLID_24_);}
	.st25{clip-path:url(#XMLID_25_);}
	.st26{clip-path:url(#XMLID_26_);}
	.st27{clip-path:url(#XMLID_27_);}
	.st28{clip-path:url(#XMLID_28_);}
	.st29{clip-path:url(#XMLID_29_);}
	.st30{clip-path:url(#XMLID_30_);}
	.st31{fill:none;stroke:#303338;stroke-width:4;stroke-linecap:round;stroke-miterlimit:10;}
	.st32{clip-path:url(#XMLID_31_);}
	.st33{clip-path:url(#XMLID_32_);}
	.st34{clip-path:url(#XMLID_33_);}
	.st35{clip-path:url(#XMLID_34_);}
	.st36{clip-path:url(#XMLID_35_);}
	.st37{clip-path:url(#XMLID_36_);}
	.st38{clip-path:url(#XMLID_37_);}
</style>
<g id="XMLID_11877_">
	<defs>
		<rect id="XMLID_11878_" width="64" height="64"/>
	</defs>
	<clipPath id="XMLID_2_">
		<use xlink:href="#XMLID_11878_"  style="overflow:visible;"/>
	</clipPath>
	<g id="XMLID_11879_" class="st0">
		<g id="XMLID_11921_">
			<polyline id="XMLID_11924_" class="st1" points="10,40 24,22 36,40 46,28 54,36 			"/>
			<circle id="XMLID_11923_" class="st1" cx="38" cy="20" r="4"/>
			<path id="XMLID_11922_" class="st1" d="M50,50H14c-2.2,0-4-1.8-4-4V10c0-2.2,1.8-4,4-4h36c2.2,0,4,1.8,4,4v36
				C54,48.2,52.2,50,50,50z"/>
		</g>
		<path id="XMLID_11880_" class="st1" d="M46,50v4c0,2.2-1.8,4-4,4H22c-2.2,0-4-1.8-4-4v-4"/>
	</g>
</g>
</svg>
