<?xml version="1.0" encoding="utf-8"?>
<!-- Generator: Adobe Illustrator 19.1.1, SVG Export Plug-In . SVG Version: 6.00 Build 0)  -->
<svg version="1.1" id="icons" xmlns="http://www.w3.org/2000/svg" xmlns:xlink="http://www.w3.org/1999/xlink" x="0px" y="0px"
	 width="64px" height="64px" viewBox="0 0 64 64" style="enable-background:new 0 0 64 64;" xml:space="preserve">
<style type="text/css">
	.st0{clip-path:url(#XMLID_2_);}
	.st1{fill:none;stroke:#303338;stroke-width:4;stroke-miterlimit:10;}
	.st2{fill:#303338;}
	.st3{clip-path:url(#XMLID_3_);}
	.st4{clip-path:url(#XMLID_4_);}
	.st5{clip-path:url(#XMLID_5_);}
	.st6{clip-path:url(#XMLID_6_);}
	.st7{clip-path:url(#XMLID_7_);}
	.st8{clip-path:url(#XMLID_8_);}
	.st9{clip-path:url(#XMLID_9_);}
	.st10{clip-path:url(#XMLID_10_);}
	.st11{clip-path:url(#XMLID_11_);}
	.st12{clip-path:url(#XMLID_12_);}
	.st13{clip-path:url(#XMLID_13_);}
	.st14{clip-path:url(#XMLID_14_);}
	.st15{clip-path:url(#XMLID_15_);}
	.st16{clip-path:url(#XMLID_16_);}
	.st17{fill:none;stroke:#303338;stroke-width:4;stroke-linecap:round;stroke-miterlimit:10;}
	.st18{clip-path:url(#XMLID_17_);}
	.st19{fill:none;stroke:#303338;stroke-width:4;stroke-linecap:round;stroke-linejoin:round;stroke-miterlimit:10;}
	.st20{clip-path:url(#XMLID_18_);}
	.st21{clip-path:url(#XMLID_19_);}
	.st22{clip-path:url(#XMLID_20_);}
	.st23{clip-path:url(#XMLID_21_);}
	.st24{clip-path:url(#XMLID_22_);}
	.st25{clip-path:url(#XMLID_23_);}
	.st26{clip-path:url(#XMLID_24_);}
	.st27{clip-path:url(#XMLID_25_);}
	.st28{clip-path:url(#XMLID_26_);}
	.st29{clip-path:url(#XMLID_27_);}
	.st30{clip-path:url(#XMLID_28_);}
	.st31{clip-path:url(#XMLID_29_);}
	.st32{fill:none;stroke:#303338;stroke-width:2;stroke-miterlimit:10;}
	.st33{clip-path:url(#XMLID_30_);}
	.st34{clip-path:url(#XMLID_31_);}
	.st35{clip-path:url(#XMLID_32_);}
	.st36{clip-path:url(#XMLID_33_);}
	.st37{clip-path:url(#XMLID_34_);}
	.st38{clip-path:url(#XMLID_35_);}
	.st39{clip-path:url(#XMLID_36_);}
	.st40{clip-path:url(#XMLID_37_);}
	.st41{clip-path:url(#XMLID_38_);}
	.st42{clip-path:url(#XMLID_39_);}
	.st43{clip-path:url(#XMLID_40_);}
	.st44{clip-path:url(#XMLID_41_);}
</style>
<g id="XMLID_3763_">
	<defs>
		<rect id="XMLID_3764_" width="64" height="64"/>
	</defs>
	<clipPath id="XMLID_2_">
		<use xlink:href="#XMLID_3764_"  style="overflow:visible;"/>
	</clipPath>
	<g id="XMLID_24919_" class="st0">
		<path id="XMLID_24936_" class="st1" d="M54,54H10c-2.2,0-4-1.8-4-4V14c0-2.2,1.8-4,4-4h44c2.2,0,4,1.8,4,4v36
			C58,52.2,56.2,54,54,54z"/>
		<g id="XMLID_24932_">
			<circle id="XMLID_24935_" class="st2" cx="14" cy="16" r="2"/>
			<circle id="XMLID_24934_" class="st2" cx="20" cy="16" r="2"/>
			<circle id="XMLID_24933_" class="st2" cx="26" cy="16" r="2"/>
		</g>
		<line id="XMLID_24931_" class="st1" x1="6" y1="22" x2="58" y2="22"/>
		<path id="XMLID_24930_" class="st2" d="M50,18H34c-1.1,0-2-0.9-2-2v0c0-1.1,0.9-2,2-2h16c1.1,0,2,0.9,2,2v0C52,17.1,51.1,18,50,18
			z"/>
		<g id="XMLID_24920_">
			<rect id="XMLID_24927_" x="12" y="28" class="st2" width="40" height="4"/>
			<rect id="XMLID_24924_" x="12" y="34" class="st2" width="24" height="14"/>
			<rect id="XMLID_24921_" x="38" y="34" class="st2" width="14" height="14"/>
		</g>
	</g>
</g>
</svg>
