<?xml version="1.0" encoding="utf-8"?>
<!-- Generator: Adobe Illustrator 19.1.1, SVG Export Plug-In . SVG Version: 6.00 Build 0)  -->
<svg version="1.1" id="icons" xmlns="http://www.w3.org/2000/svg" xmlns:xlink="http://www.w3.org/1999/xlink" x="0px" y="0px"
	 width="128px" height="128px" viewBox="0 0 128 128" style="enable-background:new 0 0 128 128;" xml:space="preserve">
<style type="text/css">
	.st0{clip-path:url(#XMLID_2_);}
	.st1{fill:#A1A8AF;}
	.st2{fill:#7C8184;}
	.st3{fill:none;stroke:#303338;stroke-width:8;stroke-linecap:round;stroke-linejoin:round;stroke-miterlimit:10;}
	.st4{fill:#303338;}
	.st5{clip-path:url(#XMLID_3_);}
	.st6{clip-path:url(#XMLID_4_);}
	.st7{fill:none;stroke:#303338;stroke-width:8;stroke-linecap:round;stroke-miterlimit:10;}
	.st8{clip-path:url(#XMLID_5_);}
	.st9{clip-path:url(#XMLID_6_);}
	.st10{clip-path:url(#XMLID_7_);}
	.st11{clip-path:url(#XMLID_8_);}
	.st12{clip-path:url(#XMLID_9_);}
	.st13{clip-path:url(#XMLID_10_);}
	.st14{clip-path:url(#XMLID_11_);}
	.st15{fill:none;stroke:#303338;stroke-width:8;stroke-miterlimit:10;}
	.st16{clip-path:url(#XMLID_12_);}
	.st17{clip-path:url(#XMLID_13_);}
	.st18{clip-path:url(#XMLID_14_);}
	.st19{clip-path:url(#XMLID_15_);}
	.st20{fill:#CBD1D3;}
	.st21{clip-path:url(#XMLID_16_);}
	.st22{clip-path:url(#XMLID_17_);}
	.st23{clip-path:url(#XMLID_18_);}
	.st24{clip-path:url(#XMLID_19_);}
	.st25{clip-path:url(#XMLID_20_);}
	.st26{clip-path:url(#XMLID_21_);}
	.st27{clip-path:url(#XMLID_22_);}
	.st28{clip-path:url(#XMLID_23_);}
	.st29{clip-path:url(#XMLID_24_);}
	.st30{clip-path:url(#XMLID_25_);}
	.st31{clip-path:url(#XMLID_26_);}
	.st32{clip-path:url(#XMLID_27_);}
	.st33{clip-path:url(#XMLID_28_);}
	.st34{clip-path:url(#XMLID_29_);}
	.st35{clip-path:url(#XMLID_30_);}
	.st36{clip-path:url(#XMLID_31_);}
	.st37{clip-path:url(#XMLID_32_);}
	.st38{clip-path:url(#XMLID_33_);}
	.st39{clip-path:url(#XMLID_34_);}
	.st40{clip-path:url(#XMLID_35_);}
	.st41{clip-path:url(#XMLID_36_);}
	.st42{clip-path:url(#XMLID_37_);}
	.st43{clip-path:url(#XMLID_38_);}
	.st44{clip-path:url(#XMLID_39_);}
	.st45{clip-path:url(#XMLID_40_);}
	.st46{clip-path:url(#XMLID_41_);}
</style>
<g id="XMLID_1252_">
	<defs>
		<rect id="XMLID_1253_" width="128" height="128"/>
	</defs>
	<clipPath id="XMLID_2_">
		<use xlink:href="#XMLID_1253_"  style="overflow:visible;"/>
	</clipPath>
	<g id="XMLID_1254_" class="st0">
		<path id="XMLID_1263_" class="st1" d="M108,112H20c-4.4,0-8-3.6-8-8V32c0-4.4,3.6-8,8-8h88c4.4,0,8,3.6,8,8v72
			C116,108.4,112.4,112,108,112z"/>
		<path id="XMLID_1262_" class="st2" d="M12,48V32c0-4.4,3.6-8,8-8h88c4.4,0,8,3.6,8,8v16H12z"/>
		<path id="XMLID_1261_" class="st3" d="M108,112H20c-4.4,0-8-3.6-8-8V32c0-4.4,3.6-8,8-8h88c4.4,0,8,3.6,8,8v72
			C116,108.4,112.4,112,108,112z"/>
		<line id="XMLID_1260_" class="st3" x1="12" y1="48" x2="116" y2="48"/>
		<line id="XMLID_1259_" class="st3" x1="36" y1="36" x2="36" y2="16"/>
		<line id="XMLID_1258_" class="st3" x1="92" y1="36" x2="92" y2="16"/>
		<g id="XMLID_1255_">
			<polyline id="XMLID_1257_" class="st3" points="64,96 48,80 64,64 			"/>
			<path id="XMLID_1256_" class="st7" d="M48,80h16c8.8,0,16-7.2,16-16"/>
		</g>
	</g>
</g>
</svg>
