<?xml version="1.0" encoding="utf-8"?>
<!-- Generator: Adobe Illustrator 19.1.1, SVG Export Plug-In . SVG Version: 6.00 Build 0)  -->
<svg version="1.1" id="icons" xmlns="http://www.w3.org/2000/svg" xmlns:xlink="http://www.w3.org/1999/xlink" x="0px" y="0px"
	 width="64px" height="64px" viewBox="0 0 64 64" style="enable-background:new 0 0 64 64;" xml:space="preserve">
<style type="text/css">
	.st0{clip-path:url(#XMLID_12_);}
	.st1{fill:#A1A8AF;}
	.st2{fill:none;stroke:#303338;stroke-width:4;stroke-linecap:round;stroke-linejoin:round;stroke-miterlimit:10;}
	.st3{clip-path:url(#XMLID_13_);}
	.st4{fill:#7C8184;}
	.st5{fill:none;stroke:#303338;stroke-width:4;stroke-linejoin:round;stroke-miterlimit:10;}
	.st6{clip-path:url(#XMLID_14_);}
	.st7{clip-path:url(#XMLID_15_);}
	.st8{fill:#CBD1D3;}
	.st9{fill:#303338;}
	.st10{clip-path:url(#XMLID_16_);}
	.st11{fill:none;stroke:#303338;stroke-width:4;stroke-linecap:round;stroke-linejoin:round;}
	.st12{fill:none;stroke:#303338;stroke-width:4;stroke-linecap:round;stroke-linejoin:round;stroke-dasharray:3.8323,7.6645;}
	.st13{clip-path:url(#XMLID_17_);}
	.st14{clip-path:url(#XMLID_18_);}
	.st15{clip-path:url(#XMLID_19_);}
	.st16{clip-path:url(#XMLID_20_);}
	.st17{clip-path:url(#XMLID_21_);}
	.st18{clip-path:url(#XMLID_22_);}
	.st19{clip-path:url(#XMLID_23_);}
	.st20{clip-path:url(#XMLID_24_);}
	.st21{clip-path:url(#XMLID_25_);}
	.st22{clip-path:url(#XMLID_26_);}
	.st23{clip-path:url(#XMLID_27_);}
	.st24{clip-path:url(#XMLID_28_);}
	.st25{clip-path:url(#XMLID_29_);}
	.st26{clip-path:url(#XMLID_30_);}
	.st27{clip-path:url(#XMLID_31_);}
	.st28{clip-path:url(#XMLID_32_);}
	.st29{clip-path:url(#XMLID_33_);}
	.st30{fill:none;stroke:#303338;stroke-width:4;stroke-linecap:round;stroke-miterlimit:10;}
	.st31{clip-path:url(#XMLID_34_);}
	.st32{clip-path:url(#XMLID_35_);}
	.st33{clip-path:url(#XMLID_36_);}
	.st34{clip-path:url(#XMLID_37_);}
	.st35{clip-path:url(#XMLID_38_);}
	.st36{clip-path:url(#XMLID_39_);}
	.st37{clip-path:url(#XMLID_40_);}
	.st38{clip-path:url(#XMLID_41_);}
	.st39{clip-path:url(#XMLID_42_);}
	.st40{clip-path:url(#XMLID_43_);}
	.st41{clip-path:url(#XMLID_44_);}
	.st42{clip-path:url(#XMLID_45_);}
	.st43{clip-path:url(#XMLID_46_);}
	.st44{clip-path:url(#XMLID_47_);}
	.st45{clip-path:url(#XMLID_48_);}
	.st46{clip-path:url(#XMLID_49_);}
	.st47{clip-path:url(#XMLID_50_);}
	.st48{clip-path:url(#XMLID_51_);}
	.st49{clip-path:url(#XMLID_52_);}
	.st50{clip-path:url(#XMLID_53_);}
	.st51{clip-path:url(#XMLID_54_);}
	.st52{clip-path:url(#XMLID_55_);}
	.st53{clip-path:url(#XMLID_56_);}
</style>
<g id="XMLID_2339_">
	<defs>
		<rect id="XMLID_2340_" width="64" height="64"/>
	</defs>
	<clipPath id="XMLID_12_">
		<use xlink:href="#XMLID_2340_"  style="overflow:visible;"/>
	</clipPath>
	<g id="XMLID_2341_" class="st0">
		<g id="XMLID_2346_">
			<path id="XMLID_2352_" class="st8" d="M52,22c2.2,0,4,1.8,4,4v28c0,2.2-1.8,4-4,4H12c-2.2,0-4-1.8-4-4V26c0-2.2,1.8-4,4-4H52z"/>
			<path id="XMLID_2351_" class="st4" d="M8,36c0,0,6,14,18,14s22-14,30-14V26c0-2.2-1.8-4-4-4H12c-2.2,0-4,1.8-4,4V36z"/>
			<path id="XMLID_2350_" class="st2" d="M44,22h8c2.2,0,4,1.8,4,4v28c0,2.2-1.8,4-4,4H12c-2.2,0-4-1.8-4-4V26c0-2.2,1.8-4,4-4h8"/>
			<g id="XMLID_2349_">
				<g id="XMLID_66_">
					<path id="XMLID_69_" class="st11" d="M8,36c0,0,0.3,0.7,0.9,1.8"/>
					<path id="XMLID_68_" class="st12" d="M13.4,44c3,3.1,7.2,6,12.6,6c9.3,0,17.5-8.5,24.5-12.3"/>
					<path id="XMLID_67_" class="st11" d="M54,36.3c0.7-0.2,1.3-0.3,2-0.3"/>
				</g>
			</g>
			<circle id="XMLID_2348_" class="st9" cx="14" cy="28" r="2"/>
			<circle id="XMLID_2347_" class="st9" cx="50" cy="52" r="2"/>
		</g>
		<g id="XMLID_2342_">
			<circle id="XMLID_2345_" class="st1" cx="32" cy="18" r="12"/>
			<circle id="XMLID_2344_" class="st2" cx="32" cy="18" r="12"/>
			<line id="XMLID_2343_" class="st2" x1="32" y1="30" x2="32" y2="38"/>
		</g>
	</g>
</g>
</svg>
