<?xml version="1.0" encoding="utf-8"?>
<!-- Generator: Adobe Illustrator 19.1.1, SVG Export Plug-In . SVG Version: 6.00 Build 0)  -->
<svg version="1.1" id="icons" xmlns="http://www.w3.org/2000/svg" xmlns:xlink="http://www.w3.org/1999/xlink" x="0px" y="0px"
	 width="64px" height="64px" viewBox="0 0 64 64" style="enable-background:new 0 0 64 64;" xml:space="preserve">
<style type="text/css">
	.st0{clip-path:url(#XMLID_12_);}
	.st1{fill:#A1A8AF;}
	.st2{fill:none;stroke:#303338;stroke-width:4;stroke-linecap:round;stroke-linejoin:round;stroke-miterlimit:10;}
	.st3{clip-path:url(#XMLID_13_);}
	.st4{fill:#7C8184;}
	.st5{fill:none;stroke:#303338;stroke-width:4;stroke-linejoin:round;stroke-miterlimit:10;}
	.st6{clip-path:url(#XMLID_14_);}
	.st7{clip-path:url(#XMLID_15_);}
	.st8{fill:#CBD1D3;}
	.st9{fill:#303338;}
	.st10{clip-path:url(#XMLID_16_);}
	.st11{fill:none;stroke:#303338;stroke-width:4;stroke-linecap:round;stroke-linejoin:round;}
	.st12{fill:none;stroke:#303338;stroke-width:4;stroke-linecap:round;stroke-linejoin:round;stroke-dasharray:3.8323,7.6645;}
	.st13{clip-path:url(#XMLID_17_);}
	.st14{clip-path:url(#XMLID_18_);}
	.st15{clip-path:url(#XMLID_19_);}
	.st16{clip-path:url(#XMLID_20_);}
	.st17{clip-path:url(#XMLID_21_);}
	.st18{clip-path:url(#XMLID_22_);}
	.st19{clip-path:url(#XMLID_23_);}
	.st20{clip-path:url(#XMLID_24_);}
	.st21{clip-path:url(#XMLID_25_);}
	.st22{clip-path:url(#XMLID_26_);}
	.st23{clip-path:url(#XMLID_27_);}
	.st24{clip-path:url(#XMLID_28_);}
	.st25{clip-path:url(#XMLID_29_);}
	.st26{clip-path:url(#XMLID_30_);}
	.st27{clip-path:url(#XMLID_31_);}
	.st28{clip-path:url(#XMLID_32_);}
	.st29{clip-path:url(#XMLID_33_);}
	.st30{fill:none;stroke:#303338;stroke-width:4;stroke-linecap:round;stroke-miterlimit:10;}
	.st31{clip-path:url(#XMLID_34_);}
	.st32{clip-path:url(#XMLID_35_);}
	.st33{clip-path:url(#XMLID_36_);}
	.st34{clip-path:url(#XMLID_37_);}
	.st35{clip-path:url(#XMLID_38_);}
	.st36{clip-path:url(#XMLID_39_);}
	.st37{clip-path:url(#XMLID_40_);}
	.st38{clip-path:url(#XMLID_41_);}
	.st39{clip-path:url(#XMLID_42_);}
	.st40{clip-path:url(#XMLID_43_);}
	.st41{clip-path:url(#XMLID_44_);}
	.st42{clip-path:url(#XMLID_45_);}
	.st43{clip-path:url(#XMLID_46_);}
	.st44{clip-path:url(#XMLID_47_);}
	.st45{clip-path:url(#XMLID_48_);}
	.st46{clip-path:url(#XMLID_49_);}
	.st47{clip-path:url(#XMLID_50_);}
	.st48{clip-path:url(#XMLID_51_);}
	.st49{clip-path:url(#XMLID_52_);}
	.st50{clip-path:url(#XMLID_53_);}
	.st51{clip-path:url(#XMLID_54_);}
	.st52{clip-path:url(#XMLID_55_);}
	.st53{clip-path:url(#XMLID_56_);}
</style>
<g id="XMLID_2013_">
	<defs>
		<rect id="XMLID_2014_" width="64" height="64"/>
	</defs>
	<clipPath id="XMLID_12_">
		<use xlink:href="#XMLID_2014_"  style="overflow:visible;"/>
	</clipPath>
	<g id="XMLID_2015_" class="st0">
		<ellipse id="XMLID_2023_" class="st4" cx="32" cy="50" rx="22" ry="8"/>
		<g id="XMLID_2017_">
			<path id="XMLID_2020_" class="st1" d="M32,6c-9.9,0-18,8.1-18,18c0,11.9,18,26,18,26s18-14.1,18-26C50,14.1,41.9,6,32,6z M32,30
				c-3.3,0-6-2.7-6-6s2.7-6,6-6s6,2.7,6,6S35.3,30,32,30z"/>
			<path id="XMLID_2019_" class="st2" d="M32,50c0,0,18-14.1,18-26c0-9.9-8.1-18-18-18s-18,8.1-18,18C14,35.9,32,50,32,50z"/>
			<circle id="XMLID_2018_" class="st2" cx="32" cy="24" r="6"/>
		</g>
		<path id="XMLID_2016_" class="st5" d="M40,42c8.2,1.2,14,4.6,14,8c0,4.4-9.8,8-22,8s-22-3.6-22-8c0-3.4,5.8-6.8,14-8"/>
	</g>
</g>
</svg>
