<?xml version="1.0" encoding="utf-8"?>
<!-- Generator: Adobe Illustrator 19.1.1, SVG Export Plug-In . SVG Version: 6.00 Build 0)  -->
<svg version="1.1" id="icons" xmlns="http://www.w3.org/2000/svg" xmlns:xlink="http://www.w3.org/1999/xlink" x="0px" y="0px"
	 width="64px" height="64px" viewBox="0 0 64 64" style="enable-background:new 0 0 64 64;" xml:space="preserve">
<style type="text/css">
	.st0{clip-path:url(#XMLID_2_);}
	.st1{fill:#A1A8AF;}
	.st2{fill:none;stroke:#303338;stroke-width:4;stroke-linecap:round;stroke-linejoin:round;stroke-miterlimit:10;}
	.st3{clip-path:url(#XMLID_3_);}
	.st4{clip-path:url(#XMLID_4_);}
	.st5{fill:#303338;}
	.st6{clip-path:url(#XMLID_5_);}
	.st7{fill:#7C8184;}
	.st8{clip-path:url(#XMLID_6_);}
	.st9{clip-path:url(#XMLID_7_);}
	.st10{clip-path:url(#XMLID_8_);}
	.st11{clip-path:url(#XMLID_9_);}
	.st12{clip-path:url(#XMLID_10_);}
	.st13{clip-path:url(#XMLID_11_);}
	.st14{clip-path:url(#XMLID_12_);}
	.st15{clip-path:url(#XMLID_13_);}
	.st16{clip-path:url(#XMLID_14_);}
	.st17{clip-path:url(#XMLID_15_);}
	.st18{clip-path:url(#XMLID_16_);}
	.st19{clip-path:url(#XMLID_17_);}
	.st20{clip-path:url(#XMLID_18_);}
	.st21{clip-path:url(#XMLID_19_);}
	.st22{clip-path:url(#XMLID_20_);}
	.st23{clip-path:url(#XMLID_21_);}
	.st24{clip-path:url(#XMLID_22_);}
	.st25{clip-path:url(#XMLID_23_);}
	.st26{clip-path:url(#XMLID_24_);}
	.st27{fill:#CBD1D3;}
	.st28{clip-path:url(#XMLID_25_);}
	.st29{clip-path:url(#XMLID_26_);}
	.st30{clip-path:url(#XMLID_27_);}
	.st31{clip-path:url(#XMLID_28_);}
	.st32{clip-path:url(#XMLID_29_);}
	.st33{clip-path:url(#XMLID_30_);}
	.st34{fill:none;stroke:#303338;stroke-width:4;stroke-linecap:round;stroke-miterlimit:10;}
	.st35{clip-path:url(#XMLID_31_);}
	.st36{clip-path:url(#XMLID_32_);}
	.st37{clip-path:url(#XMLID_33_);}
	.st38{clip-path:url(#XMLID_34_);}
	.st39{clip-path:url(#XMLID_35_);}
	.st40{clip-path:url(#XMLID_36_);}
	.st41{clip-path:url(#XMLID_37_);}
</style>
<g id="XMLID_11937_">
	<defs>
		<rect id="XMLID_11938_" width="64" height="64"/>
	</defs>
	<clipPath id="XMLID_2_">
		<use xlink:href="#XMLID_11938_"  style="overflow:visible;"/>
	</clipPath>
	<g id="XMLID_11939_" class="st0">
		<path id="XMLID_11946_" class="st7" d="M14,10c0-2.2,1.8-4,4-4h36c2.2,0,4,1.8,4,4v36c0,2.2-1.8,4-4,4H14V10z"/>
		<g id="XMLID_11941_">
			<path id="XMLID_11945_" class="st1" d="M46,14H10c-2.2,0-4,1.8-4,4v36c0,2.2,1.8,4,4,4h36c2.2,0,4-1.8,4-4V18
				C50,15.8,48.2,14,46,14z"/>
			<polyline id="XMLID_11944_" class="st2" points="6,48 20,30 32,48 42,36 50,44 			"/>
			<circle id="XMLID_11943_" class="st2" cx="34" cy="28" r="4"/>
			<path id="XMLID_11942_" class="st2" d="M46,58H10c-2.2,0-4-1.8-4-4V18c0-2.2,1.8-4,4-4h36c2.2,0,4,1.8,4,4v36
				C50,56.2,48.2,58,46,58z"/>
		</g>
		<path id="XMLID_11940_" class="st2" d="M50,50h4c2.2,0,4-1.8,4-4V10c0-2.2-1.8-4-4-4H18c-2.2,0-4,1.8-4,4v4"/>
	</g>
</g>
</svg>
