<?xml version="1.0" encoding="utf-8"?>
<!-- Generator: Adobe Illustrator 19.1.1, SVG Export Plug-In . SVG Version: 6.00 Build 0)  -->
<svg version="1.1" id="icons" xmlns="http://www.w3.org/2000/svg" xmlns:xlink="http://www.w3.org/1999/xlink" x="0px" y="0px"
	 width="32px" height="32px" viewBox="0 0 32 32" style="enable-background:new 0 0 32 32;" xml:space="preserve">
<style type="text/css">
	.st0{clip-path:url(#XMLID_2_);}
	.st1{fill:#A1A8AF;}
	.st2{fill:none;stroke:#303338;stroke-width:2;stroke-linecap:round;stroke-linejoin:round;stroke-miterlimit:10;}
	.st3{clip-path:url(#XMLID_3_);}
	.st4{clip-path:url(#XMLID_4_);}
	.st5{fill:#303338;}
	.st6{clip-path:url(#XMLID_5_);}
	.st7{fill:#7C8184;}
	.st8{clip-path:url(#XMLID_6_);}
	.st9{clip-path:url(#XMLID_7_);}
	.st10{clip-path:url(#XMLID_8_);}
	.st11{clip-path:url(#XMLID_9_);}
	.st12{clip-path:url(#XMLID_10_);}
	.st13{clip-path:url(#XMLID_11_);}
	.st14{clip-path:url(#XMLID_12_);}
	.st15{clip-path:url(#XMLID_13_);}
	.st16{clip-path:url(#XMLID_14_);}
	.st17{clip-path:url(#XMLID_15_);}
	.st18{clip-path:url(#XMLID_16_);}
	.st19{clip-path:url(#XMLID_17_);}
	.st20{clip-path:url(#XMLID_18_);}
	.st21{clip-path:url(#XMLID_19_);}
	.st22{clip-path:url(#XMLID_20_);}
	.st23{clip-path:url(#XMLID_21_);}
	.st24{clip-path:url(#XMLID_22_);}
	.st25{clip-path:url(#XMLID_23_);}
	.st26{clip-path:url(#XMLID_24_);}
	.st27{fill:#CBD1D3;}
	.st28{clip-path:url(#XMLID_25_);}
	.st29{clip-path:url(#XMLID_26_);}
	.st30{clip-path:url(#XMLID_27_);}
	.st31{clip-path:url(#XMLID_28_);}
	.st32{clip-path:url(#XMLID_29_);}
	.st33{clip-path:url(#XMLID_30_);}
	.st34{fill:none;stroke:#303338;stroke-width:2;stroke-linecap:round;stroke-miterlimit:10;}
	.st35{clip-path:url(#XMLID_31_);}
	.st36{clip-path:url(#XMLID_32_);}
	.st37{clip-path:url(#XMLID_33_);}
	.st38{clip-path:url(#XMLID_34_);}
	.st39{clip-path:url(#XMLID_35_);}
	.st40{clip-path:url(#XMLID_36_);}
	.st41{clip-path:url(#XMLID_37_);}
</style>
<g id="XMLID_6730_">
	<defs>
		<rect id="XMLID_4263_" width="32" height="32"/>
	</defs>
	<clipPath id="XMLID_2_">
		<use xlink:href="#XMLID_4263_"  style="overflow:visible;"/>
	</clipPath>
	<g id="XMLID_13718_" class="st0">
		<path id="XMLID_8312_" class="st1" d="M27,29H5c-1.1,0-2-0.9-2-2V5c0-1.1,0.9-2,2-2h22c1.1,0,2,0.9,2,2v22C29,28.1,28.1,29,27,29z
			"/>
		<rect id="XMLID_8313_" x="7" y="7" class="st7" width="18" height="14"/>
		<polyline id="XMLID_13723_" class="st2" points="7,18 12,11 17,18 21,14 25,18 		"/>
		<circle id="XMLID_13722_" class="st5" cx="18" cy="11" r="2"/>
		<path id="XMLID_13721_" class="st2" d="M27,29H5c-1.1,0-2-0.9-2-2V5c0-1.1,0.9-2,2-2h22c1.1,0,2,0.9,2,2v22C29,28.1,28.1,29,27,29
			z"/>
		<line id="XMLID_13720_" class="st2" x1="3" y1="25" x2="29" y2="25"/>
		<rect id="XMLID_13719_" x="7" y="7" class="st2" width="18" height="14"/>
	</g>
</g>
</svg>
