<?xml version="1.0" encoding="utf-8"?>
<!-- Generator: Adobe Illustrator 19.1.1, SVG Export Plug-In . SVG Version: 6.00 Build 0)  -->
<svg version="1.1" id="icons" xmlns="http://www.w3.org/2000/svg" xmlns:xlink="http://www.w3.org/1999/xlink" x="0px" y="0px"
	 width="32px" height="32px" viewBox="0 0 32 32" style="enable-background:new 0 0 32 32;" xml:space="preserve">
<style type="text/css">
	.st0{clip-path:url(#XMLID_2_);}
	.st1{fill:none;stroke:#303338;stroke-width:2;stroke-linecap:round;stroke-linejoin:round;stroke-miterlimit:10;}
	.st2{clip-path:url(#XMLID_3_);}
	.st3{clip-path:url(#XMLID_4_);}
	.st4{clip-path:url(#XMLID_5_);}
	.st5{clip-path:url(#XMLID_6_);}
	.st6{clip-path:url(#XMLID_7_);}
	.st7{clip-path:url(#XMLID_8_);}
	.st8{clip-path:url(#XMLID_9_);}
	.st9{clip-path:url(#XMLID_10_);}
	.st10{fill:#303338;}
	.st11{clip-path:url(#XMLID_11_);}
	.st12{clip-path:url(#XMLID_12_);}
	.st13{clip-path:url(#XMLID_13_);}
	.st14{clip-path:url(#XMLID_14_);}
	.st15{clip-path:url(#XMLID_15_);}
	.st16{clip-path:url(#XMLID_16_);}
	.st17{clip-path:url(#XMLID_17_);}
	.st18{clip-path:url(#XMLID_18_);}
	.st19{clip-path:url(#XMLID_19_);}
	.st20{clip-path:url(#XMLID_20_);}
	.st21{clip-path:url(#XMLID_21_);}
	.st22{fill:none;stroke:#303338;stroke-width:2;stroke-linecap:round;stroke-miterlimit:10;}
	.st23{clip-path:url(#XMLID_22_);}
	.st24{clip-path:url(#XMLID_23_);}
	.st25{clip-path:url(#XMLID_24_);}
	.st26{clip-path:url(#XMLID_25_);}
</style>
<g id="XMLID_6768_">
	<defs>
		<rect id="XMLID_4221_" width="32" height="32"/>
	</defs>
	<clipPath id="XMLID_2_">
		<use xlink:href="#XMLID_4221_"  style="overflow:visible;"/>
	</clipPath>
	<g id="XMLID_13381_" class="st0">
		<ellipse id="XMLID_13385_" class="st1" cx="16" cy="11" rx="6" ry="8"/>
		<path id="XMLID_13384_" class="st1" d="M19,18v3c0,1.1,0.9,2,2,2h2c2.2,0,4,1.8,4,4v2H5v-2c0-2.2,1.8-4,4-4h2c1.1,0,2-0.9,2-2v-3"
			/>
		<path id="XMLID_13383_" class="st1" d="M20,23c0,1.1-1.8,2-4,2s-4-0.9-4-2"/>
		<polyline id="XMLID_13382_" class="st1" points="14,11 16,13 18,9 		"/>
	</g>
</g>
</svg>
