<?xml version="1.0" encoding="utf-8"?>
<!-- Generator: Adobe Illustrator 19.1.1, SVG Export Plug-In . SVG Version: 6.00 Build 0)  -->
<svg version="1.1" id="icons" xmlns="http://www.w3.org/2000/svg" xmlns:xlink="http://www.w3.org/1999/xlink" x="0px" y="0px"
	 width="32px" height="32px" viewBox="0 0 32 32" style="enable-background:new 0 0 32 32;" xml:space="preserve">
<style type="text/css">
	.st0{clip-path:url(#XMLID_2_);}
	.st1{fill:#7C8184;}
	.st2{fill:none;stroke:#303338;stroke-width:2;stroke-linecap:round;stroke-linejoin:round;stroke-miterlimit:10;}
	.st3{fill:#A1A8AF;}
	.st4{fill:none;stroke:#303338;stroke-width:4;stroke-miterlimit:10;}
	.st5{fill:#303338;}
	.st6{clip-path:url(#XMLID_3_);}
	.st7{clip-path:url(#XMLID_4_);}
	.st8{clip-path:url(#XMLID_5_);}
	.st9{clip-path:url(#XMLID_6_);}
	.st10{clip-path:url(#XMLID_7_);}
	.st11{clip-path:url(#XMLID_8_);}
	.st12{clip-path:url(#XMLID_9_);}
	.st13{clip-path:url(#XMLID_10_);}
	.st14{clip-path:url(#XMLID_11_);}
	.st15{clip-path:url(#XMLID_12_);}
	.st16{clip-path:url(#XMLID_13_);}
	.st17{clip-path:url(#XMLID_14_);}
	.st18{fill:#CBD1D3;}
	.st19{clip-path:url(#XMLID_15_);}
	.st20{clip-path:url(#XMLID_16_);}
	.st21{clip-path:url(#XMLID_17_);}
	.st22{clip-path:url(#XMLID_18_);}
	.st23{clip-path:url(#XMLID_19_);}
	.st24{clip-path:url(#XMLID_20_);}
	.st25{clip-path:url(#XMLID_21_);}
	.st26{clip-path:url(#XMLID_22_);}
	.st27{clip-path:url(#XMLID_23_);}
	.st28{clip-path:url(#XMLID_24_);}
	.st29{clip-path:url(#XMLID_25_);}
	.st30{clip-path:url(#XMLID_26_);}
	.st31{clip-path:url(#XMLID_27_);}
	.st32{clip-path:url(#XMLID_28_);}
	.st33{clip-path:url(#XMLID_29_);}
	.st34{clip-path:url(#XMLID_30_);}
	.st35{clip-path:url(#XMLID_31_);}
	.st36{clip-path:url(#XMLID_32_);}
	.st37{clip-path:url(#XMLID_33_);}
	.st38{clip-path:url(#XMLID_34_);}
	.st39{clip-path:url(#XMLID_35_);}
	.st40{clip-path:url(#XMLID_36_);}
	.st41{clip-path:url(#XMLID_37_);}
	.st42{clip-path:url(#XMLID_38_);}
	.st43{clip-path:url(#XMLID_39_);}
	.st44{clip-path:url(#XMLID_40_);}
	.st45{clip-path:url(#XMLID_41_);}
	.st46{clip-path:url(#XMLID_42_);}
	.st47{clip-path:url(#XMLID_43_);}
	.st48{clip-path:url(#XMLID_44_);}
	.st49{clip-path:url(#XMLID_45_);}
	.st50{clip-path:url(#XMLID_46_);}
	.st51{clip-path:url(#XMLID_47_);}
	.st52{clip-path:url(#XMLID_48_);}
	.st53{clip-path:url(#XMLID_49_);}
	.st54{clip-path:url(#XMLID_50_);}
	.st55{clip-path:url(#XMLID_51_);}
	.st56{clip-path:url(#XMLID_52_);}
	.st57{fill:none;stroke:#303338;stroke-width:2;stroke-miterlimit:10;}
	.st58{fill:none;stroke:#303338;stroke-width:2;stroke-linecap:round;stroke-miterlimit:10;}
	.st59{clip-path:url(#XMLID_53_);}
	.st60{clip-path:url(#XMLID_54_);}
	.st61{clip-path:url(#XMLID_55_);}
	.st62{clip-path:url(#XMLID_56_);}
	.st63{clip-path:url(#XMLID_57_);}
	.st64{clip-path:url(#XMLID_58_);}
	.st65{clip-path:url(#XMLID_59_);}
	.st66{clip-path:url(#XMLID_60_);}
	.st67{clip-path:url(#XMLID_61_);}
	.st68{clip-path:url(#XMLID_62_);}
	.st69{clip-path:url(#XMLID_63_);}
	.st70{clip-path:url(#XMLID_64_);}
	.st71{clip-path:url(#XMLID_65_);}
	.st72{clip-path:url(#XMLID_66_);}
	.st73{clip-path:url(#XMLID_67_);}
	.st74{clip-path:url(#XMLID_68_);}
	.st75{clip-path:url(#XMLID_69_);}
	.st76{clip-path:url(#XMLID_70_);}
	.st77{clip-path:url(#XMLID_71_);}
	.st78{clip-path:url(#XMLID_72_);}
	.st79{clip-path:url(#XMLID_73_);}
	.st80{clip-path:url(#XMLID_74_);}
	.st81{clip-path:url(#XMLID_75_);}
	.st82{clip-path:url(#XMLID_76_);}
	.st83{clip-path:url(#XMLID_77_);}
	.st84{clip-path:url(#XMLID_78_);}
	.st85{clip-path:url(#XMLID_79_);}
	.st86{clip-path:url(#XMLID_80_);}
	.st87{clip-path:url(#XMLID_81_);}
	.st88{clip-path:url(#XMLID_82_);}
	.st89{clip-path:url(#XMLID_83_);}
	.st90{clip-path:url(#XMLID_84_);}
	.st91{clip-path:url(#XMLID_85_);}
	.st92{clip-path:url(#XMLID_86_);}
	.st93{clip-path:url(#XMLID_87_);}
	.st94{clip-path:url(#XMLID_88_);}
	.st95{clip-path:url(#XMLID_89_);}
	.st96{clip-path:url(#XMLID_90_);}
	.st97{clip-path:url(#XMLID_91_);}
</style>
<g id="XMLID_6489_">
	<defs>
		<rect id="XMLID_4558_" width="32" height="32"/>
	</defs>
	<clipPath id="XMLID_2_">
		<use xlink:href="#XMLID_4558_"  style="overflow:visible;"/>
	</clipPath>
	<g id="XMLID_16162_" class="st0">
		<g id="XMLID_16171_">
			<path id="XMLID_7217_" class="st1" d="M7,24c0,1.1,0.9,2,2,2h18c1.1,0,2-0.9,2-2V12c0-1.1-0.9-2-2-2H7V24z"/>
			<path id="XMLID_16173_" class="st2" d="M25,10h2c1.1,0,2,0.9,2,2v12c0,1.1-0.9,2-2,2H9c-1.1,0-2-0.9-2-2v-2"/>
			<line id="XMLID_16172_" class="st4" x1="25" y1="15" x2="29" y2="15"/>
		</g>
		<g id="XMLID_16163_">
			<path id="XMLID_7215_" class="st3" d="M23,22H5c-1.1,0-2-0.9-2-2V8c0-1.1,0.9-2,2-2h18c1.1,0,2,0.9,2,2v12C25,21.1,24.1,22,23,22
				z"/>
			<path id="XMLID_16170_" class="st2" d="M23,22H5c-1.1,0-2-0.9-2-2V8c0-1.1,0.9-2,2-2h18c1.1,0,2,0.9,2,2v12
				C25,21.1,24.1,22,23,22z"/>
			<line id="XMLID_16169_" class="st4" x1="3" y1="11" x2="25" y2="11"/>
			<g id="XMLID_16165_">
				<rect id="XMLID_16168_" x="14" y="17" class="st5" width="2" height="2"/>
				<rect id="XMLID_16167_" x="17" y="17" class="st5" width="2" height="2"/>
				<rect id="XMLID_16166_" x="20" y="17" class="st5" width="2" height="2"/>
			</g>
			<circle id="XMLID_16164_" class="st5" cx="8" cy="17" r="2"/>
		</g>
	</g>
</g>
</svg>
