<?xml version="1.0" encoding="utf-8"?>
<!-- Generator: Adobe Illustrator 19.1.1, SVG Export Plug-In . SVG Version: 6.00 Build 0)  -->
<svg version="1.1" id="icons" xmlns="http://www.w3.org/2000/svg" xmlns:xlink="http://www.w3.org/1999/xlink" x="0px" y="0px"
	 width="64px" height="64px" viewBox="0 0 64 64" style="enable-background:new 0 0 64 64;" xml:space="preserve">
<style type="text/css">
	.st0{clip-path:url(#XMLID_2_);}
	.st1{fill:#CBD1D3;}
	.st2{fill:none;stroke:#303338;stroke-width:4;stroke-linecap:round;stroke-linejoin:round;stroke-miterlimit:10;}
	.st3{clip-path:url(#XMLID_3_);}
	.st4{clip-path:url(#XMLID_4_);}
	.st5{clip-path:url(#XMLID_5_);}
	.st6{clip-path:url(#XMLID_6_);}
	.st7{fill:#303338;}
	.st8{clip-path:url(#XMLID_7_);}
	.st9{clip-path:url(#XMLID_8_);}
	.st10{clip-path:url(#XMLID_9_);}
	.st11{clip-path:url(#XMLID_10_);}
	.st12{clip-path:url(#XMLID_11_);}
	.st13{clip-path:url(#XMLID_12_);}
	.st14{fill:none;stroke:#303338;stroke-width:4;stroke-linecap:round;stroke-miterlimit:10;}
	.st15{clip-path:url(#XMLID_13_);}
	.st16{clip-path:url(#XMLID_14_);}
	.st17{clip-path:url(#XMLID_15_);}
	.st18{clip-path:url(#XMLID_16_);}
	.st19{clip-path:url(#XMLID_17_);}
	.st20{clip-path:url(#XMLID_18_);}
	.st21{clip-path:url(#XMLID_19_);}
	.st22{clip-path:url(#XMLID_20_);}
	.st23{clip-path:url(#XMLID_21_);}
	.st24{clip-path:url(#XMLID_22_);}
	.st25{clip-path:url(#XMLID_23_);}
	.st26{clip-path:url(#XMLID_24_);}
	.st27{clip-path:url(#XMLID_25_);}
	.st28{clip-path:url(#XMLID_26_);}
	.st29{clip-path:url(#XMLID_27_);}
	.st30{clip-path:url(#XMLID_28_);}
	.st31{clip-path:url(#XMLID_29_);}
	.st32{clip-path:url(#XMLID_30_);}
	.st33{clip-path:url(#XMLID_31_);}
	.st34{clip-path:url(#XMLID_32_);}
	.st35{clip-path:url(#XMLID_33_);}
	.st36{clip-path:url(#XMLID_34_);}
	.st37{clip-path:url(#XMLID_35_);}
</style>
<g id="XMLID_11663_">
	<defs>
		<rect id="XMLID_11664_" width="64" height="64"/>
	</defs>
	<clipPath id="XMLID_2_">
		<use xlink:href="#XMLID_11664_"  style="overflow:visible;"/>
	</clipPath>
	<g id="XMLID_11665_" class="st0">
		<path id="XMLID_11678_" class="st1" d="M16,26c-5.5,0-10,4.5-10,10s4.5,10,10,10h22c11,0,20-9,20-20S49,6,38,6s-20,9-20,20H16z"/>
		<path id="XMLID_11677_" class="st2" d="M16,26c-5.5,0-10,4.5-10,10s4.5,10,10,10h22c11,0,20-9,20-20S49,6,38,6s-20,9-20,20H16z"/>
		<g id="XMLID_11666_">
			<circle id="XMLID_11676_" class="st7" cx="22" cy="52" r="2"/>
			<circle id="XMLID_11675_" class="st7" cx="28" cy="52" r="2"/>
			<circle id="XMLID_11674_" class="st7" cx="34" cy="52" r="2"/>
			<circle id="XMLID_11673_" class="st7" cx="40" cy="52" r="2"/>
			<circle id="XMLID_11672_" class="st7" cx="46" cy="52" r="2"/>
			<circle id="XMLID_11671_" class="st7" cx="18" cy="58" r="2"/>
			<circle id="XMLID_11670_" class="st7" cx="24" cy="58" r="2"/>
			<circle id="XMLID_11669_" class="st7" cx="30" cy="58" r="2"/>
			<circle id="XMLID_11668_" class="st7" cx="36" cy="58" r="2"/>
			<circle id="XMLID_11667_" class="st7" cx="42" cy="58" r="2"/>
		</g>
	</g>
</g>
</svg>
