<?xml version="1.0" encoding="utf-8"?>
<!-- Generator: Adobe Illustrator 19.1.1, SVG Export Plug-In . SVG Version: 6.00 Build 0)  -->
<svg version="1.1" id="icons" xmlns="http://www.w3.org/2000/svg" xmlns:xlink="http://www.w3.org/1999/xlink" x="0px" y="0px"
	 width="32px" height="32px" viewBox="0 0 32 32" style="enable-background:new 0 0 32 32;" xml:space="preserve">
<style type="text/css">
	.st0{clip-path:url(#XMLID_2_);}
	.st1{fill:#CBD1D3;}
	.st2{fill:none;stroke:#303338;stroke-width:2;stroke-linecap:round;stroke-linejoin:round;stroke-miterlimit:10;}
	.st3{clip-path:url(#XMLID_3_);}
	.st4{clip-path:url(#XMLID_4_);}
	.st5{clip-path:url(#XMLID_5_);}
	.st6{clip-path:url(#XMLID_6_);}
	.st7{fill:#303338;}
	.st8{clip-path:url(#XMLID_7_);}
	.st9{clip-path:url(#XMLID_8_);}
	.st10{clip-path:url(#XMLID_9_);}
	.st11{clip-path:url(#XMLID_10_);}
	.st12{clip-path:url(#XMLID_11_);}
	.st13{clip-path:url(#XMLID_12_);}
	.st14{fill:none;stroke:#303338;stroke-width:2;stroke-linecap:round;stroke-miterlimit:10;}
	.st15{clip-path:url(#XMLID_13_);}
	.st16{clip-path:url(#XMLID_14_);}
	.st17{clip-path:url(#XMLID_15_);}
	.st18{clip-path:url(#XMLID_16_);}
	.st19{clip-path:url(#XMLID_17_);}
	.st20{clip-path:url(#XMLID_18_);}
	.st21{clip-path:url(#XMLID_19_);}
	.st22{clip-path:url(#XMLID_20_);}
	.st23{clip-path:url(#XMLID_21_);}
	.st24{clip-path:url(#XMLID_22_);}
	.st25{clip-path:url(#XMLID_23_);}
	.st26{clip-path:url(#XMLID_24_);}
	.st27{clip-path:url(#XMLID_25_);}
	.st28{clip-path:url(#XMLID_26_);}
	.st29{clip-path:url(#XMLID_27_);}
	.st30{clip-path:url(#XMLID_28_);}
	.st31{clip-path:url(#XMLID_29_);}
	.st32{clip-path:url(#XMLID_30_);}
	.st33{clip-path:url(#XMLID_31_);}
	.st34{clip-path:url(#XMLID_32_);}
	.st35{clip-path:url(#XMLID_33_);}
	.st36{clip-path:url(#XMLID_34_);}
	.st37{clip-path:url(#XMLID_35_);}
</style>
<g id="XMLID_6699_">
	<defs>
		<rect id="XMLID_4291_" width="32" height="32"/>
	</defs>
	<clipPath id="XMLID_2_">
		<use xlink:href="#XMLID_4291_"  style="overflow:visible;"/>
	</clipPath>
	<g id="XMLID_13934_" class="st0">
		<path id="XMLID_8645_" class="st1" d="M10,11c0-4.4,3.6-8,8-8s8,3.6,8,8s-3.6,8-8,8h-8c-2.2,0-4-1.8-4-4S7.8,11,10,11z"/>
		<path id="XMLID_13950_" class="st2" d="M10,11c0-4.4,3.6-8,8-8s8,3.6,8,8s-3.6,8-8,8h-8c-2.2,0-4-1.8-4-4S7.8,11,10,11z"/>
		<circle id="XMLID_13949_" class="st7" cx="10" cy="23" r="1"/>
		<circle id="XMLID_13948_" class="st7" cx="7" cy="23" r="1"/>
		<circle id="XMLID_13947_" class="st7" cx="13" cy="23" r="1"/>
		<circle id="XMLID_13946_" class="st7" cx="16" cy="23" r="1"/>
		<circle id="XMLID_13945_" class="st7" cx="19" cy="23" r="1"/>
		<circle id="XMLID_13944_" class="st7" cx="13" cy="26" r="1"/>
		<circle id="XMLID_13943_" class="st7" cx="13" cy="29" r="1"/>
		<circle id="XMLID_13942_" class="st7" cx="10" cy="26" r="1"/>
		<circle id="XMLID_13941_" class="st7" cx="16" cy="26" r="1"/>
		<circle id="XMLID_13940_" class="st7" cx="16" cy="29" r="1"/>
		<circle id="XMLID_13939_" class="st7" cx="19" cy="26" r="1"/>
		<circle id="XMLID_13938_" class="st7" cx="19" cy="29" r="1"/>
		<circle id="XMLID_13937_" class="st7" cx="22" cy="26" r="1"/>
		<circle id="XMLID_13936_" class="st7" cx="22" cy="23" r="1"/>
		<circle id="XMLID_13935_" class="st7" cx="25" cy="23" r="1"/>
	</g>
</g>
</svg>
