<?xml version="1.0" encoding="utf-8"?>
<!-- Generator: Adobe Illustrator 19.1.1, SVG Export Plug-In . SVG Version: 6.00 Build 0)  -->
<svg version="1.1" id="icons" xmlns="http://www.w3.org/2000/svg" xmlns:xlink="http://www.w3.org/1999/xlink" x="0px" y="0px"
	 width="32px" height="32px" viewBox="0 0 32 32" style="enable-background:new 0 0 32 32;" xml:space="preserve">
<style type="text/css">
	.st0{clip-path:url(#XMLID_3_);}
	.st1{fill:#7C8184;}
	.st2{fill:#A1A8AF;}
	.st3{fill:none;stroke:#303338;stroke-width:2;stroke-linecap:round;stroke-linejoin:round;stroke-miterlimit:10;}
	.st4{clip-path:url(#XMLID_4_);}
	.st5{clip-path:url(#XMLID_5_);}
	.st6{clip-path:url(#XMLID_6_);}
	.st7{clip-path:url(#XMLID_7_);}
	.st8{fill:#303338;}
	.st9{clip-path:url(#XMLID_8_);}
	.st10{clip-path:url(#XMLID_9_);}
	.st11{fill:none;stroke:#303338;stroke-width:2;stroke-linejoin:round;stroke-miterlimit:10;}
	.st12{clip-path:url(#XMLID_10_);}
	.st13{clip-path:url(#XMLID_11_);}
	.st14{fill:#CBD1D3;}
	.st15{clip-path:url(#XMLID_12_);}
	.st16{fill:none;stroke:#303338;stroke-width:2;stroke-linecap:round;stroke-linejoin:round;}
	.st17{fill:none;stroke:#303338;stroke-width:2;stroke-linecap:round;stroke-linejoin:round;stroke-dasharray:1.9159,3.8319;}
	.st18{clip-path:url(#XMLID_13_);}
	.st19{clip-path:url(#XMLID_14_);}
	.st20{clip-path:url(#XMLID_15_);}
	.st21{clip-path:url(#XMLID_16_);}
	.st22{clip-path:url(#XMLID_17_);}
	.st23{clip-path:url(#XMLID_18_);}
	.st24{clip-path:url(#XMLID_19_);}
	.st25{clip-path:url(#XMLID_20_);}
	.st26{clip-path:url(#XMLID_21_);}
	.st27{clip-path:url(#XMLID_22_);}
	.st28{clip-path:url(#XMLID_23_);}
	.st29{clip-path:url(#XMLID_24_);}
	.st30{fill:none;stroke:#303338;stroke-width:2;stroke-linecap:round;stroke-miterlimit:10;}
	.st31{clip-path:url(#XMLID_25_);}
	.st32{clip-path:url(#XMLID_26_);}
	.st33{clip-path:url(#XMLID_27_);}
	.st34{clip-path:url(#XMLID_28_);}
	.st35{clip-path:url(#XMLID_29_);}
	.st36{clip-path:url(#XMLID_30_);}
	.st37{clip-path:url(#XMLID_31_);}
	.st38{clip-path:url(#XMLID_32_);}
	.st39{clip-path:url(#XMLID_33_);}
	.st40{clip-path:url(#XMLID_34_);}
	.st41{clip-path:url(#XMLID_35_);}
	.st42{clip-path:url(#XMLID_36_);}
	.st43{clip-path:url(#XMLID_37_);}
	.st44{clip-path:url(#XMLID_38_);}
	.st45{clip-path:url(#XMLID_39_);}
	.st46{clip-path:url(#XMLID_40_);}
	.st47{clip-path:url(#XMLID_41_);}
	.st48{clip-path:url(#XMLID_42_);}
	.st49{clip-path:url(#XMLID_43_);}
	.st50{clip-path:url(#XMLID_44_);}
	.st51{clip-path:url(#XMLID_45_);}
	.st52{clip-path:url(#XMLID_46_);}
	.st53{clip-path:url(#XMLID_47_);}
</style>
<g id="XMLID_7073_">
	<defs>
		<rect id="XMLID_3882_" width="32" height="32"/>
	</defs>
	<clipPath id="XMLID_3_">
		<use xlink:href="#XMLID_3882_"  style="overflow:visible;"/>
	</clipPath>
	<g id="XMLID_2162_" class="st0">
		<ellipse id="XMLID_9706_" class="st1" cx="16" cy="25" rx="11" ry="4"/>
		<g id="XMLID_3114_">
			<path id="XMLID_9718_" class="st2" d="M16,3c-5,0-9,4-9,9c0,6,9,13,9,13s9-7,9-13C25,7,21,3,16,3z M16,15c-1.7,0-3-1.3-3-3
				s1.3-3,3-3s3,1.3,3,3S17.7,15,16,15z"/>
			<path id="XMLID_3113_" class="st3" d="M16,25c0,0,9-7,9-13c0-5-4-9-9-9s-9,4-9,9C7,18,16,25,16,25z"/>
			<circle id="XMLID_3112_" class="st3" cx="16" cy="12" r="3"/>
		</g>
		<path id="XMLID_2371_" class="st11" d="M20,21c4.1,0.6,7,2.3,7,4c0,2.2-4.9,4-11,4S5,27.2,5,25c0-1.7,2.9-3.4,7-4"/>
	</g>
</g>
</svg>
