<?xml version="1.0" encoding="utf-8"?>
<!-- Generator: Adobe Illustrator 19.1.1, SVG Export Plug-In . SVG Version: 6.00 Build 0)  -->
<svg version="1.1" id="icons" xmlns="http://www.w3.org/2000/svg" xmlns:xlink="http://www.w3.org/1999/xlink" x="0px" y="0px"
	 width="32px" height="32px" viewBox="0 0 32 32" style="enable-background:new 0 0 32 32;" xml:space="preserve">
<style type="text/css">
	.st0{clip-path:url(#XMLID_3_);}
	.st1{fill:#7C8184;}
	.st2{fill:#A1A8AF;}
	.st3{fill:none;stroke:#303338;stroke-width:2;stroke-linecap:round;stroke-linejoin:round;stroke-miterlimit:10;}
	.st4{clip-path:url(#XMLID_4_);}
	.st5{clip-path:url(#XMLID_5_);}
	.st6{clip-path:url(#XMLID_6_);}
	.st7{clip-path:url(#XMLID_7_);}
	.st8{fill:#303338;}
	.st9{clip-path:url(#XMLID_8_);}
	.st10{clip-path:url(#XMLID_9_);}
	.st11{fill:none;stroke:#303338;stroke-width:2;stroke-linejoin:round;stroke-miterlimit:10;}
	.st12{clip-path:url(#XMLID_10_);}
	.st13{clip-path:url(#XMLID_11_);}
	.st14{fill:#CBD1D3;}
	.st15{clip-path:url(#XMLID_12_);}
	.st16{fill:none;stroke:#303338;stroke-width:2;stroke-linecap:round;stroke-linejoin:round;}
	.st17{fill:none;stroke:#303338;stroke-width:2;stroke-linecap:round;stroke-linejoin:round;stroke-dasharray:1.9159,3.8319;}
	.st18{clip-path:url(#XMLID_13_);}
	.st19{clip-path:url(#XMLID_14_);}
	.st20{clip-path:url(#XMLID_15_);}
	.st21{clip-path:url(#XMLID_16_);}
	.st22{clip-path:url(#XMLID_17_);}
	.st23{clip-path:url(#XMLID_18_);}
	.st24{clip-path:url(#XMLID_19_);}
	.st25{clip-path:url(#XMLID_20_);}
	.st26{clip-path:url(#XMLID_21_);}
	.st27{clip-path:url(#XMLID_22_);}
	.st28{clip-path:url(#XMLID_23_);}
	.st29{clip-path:url(#XMLID_24_);}
	.st30{fill:none;stroke:#303338;stroke-width:2;stroke-linecap:round;stroke-miterlimit:10;}
	.st31{clip-path:url(#XMLID_25_);}
	.st32{clip-path:url(#XMLID_26_);}
	.st33{clip-path:url(#XMLID_27_);}
	.st34{clip-path:url(#XMLID_28_);}
	.st35{clip-path:url(#XMLID_29_);}
	.st36{clip-path:url(#XMLID_30_);}
	.st37{clip-path:url(#XMLID_31_);}
	.st38{clip-path:url(#XMLID_32_);}
	.st39{clip-path:url(#XMLID_33_);}
	.st40{clip-path:url(#XMLID_34_);}
	.st41{clip-path:url(#XMLID_35_);}
	.st42{clip-path:url(#XMLID_36_);}
	.st43{clip-path:url(#XMLID_37_);}
	.st44{clip-path:url(#XMLID_38_);}
	.st45{clip-path:url(#XMLID_39_);}
	.st46{clip-path:url(#XMLID_40_);}
	.st47{clip-path:url(#XMLID_41_);}
	.st48{clip-path:url(#XMLID_42_);}
	.st49{clip-path:url(#XMLID_43_);}
	.st50{clip-path:url(#XMLID_44_);}
	.st51{clip-path:url(#XMLID_45_);}
	.st52{clip-path:url(#XMLID_46_);}
	.st53{clip-path:url(#XMLID_47_);}
</style>
<g id="XMLID_7081_">
	<defs>
		<rect id="XMLID_3870_" width="32" height="32"/>
	</defs>
	<clipPath id="XMLID_3_">
		<use xlink:href="#XMLID_3870_"  style="overflow:visible;"/>
	</clipPath>
	<g id="XMLID_3095_" class="st0">
		<g id="XMLID_3146_">
			<path id="XMLID_9735_" class="st14" d="M26,11c1.1,0,2,0.9,2,2v14c0,1.1-0.9,2-2,2H6c-1.1,0-2-0.9-2-2V13c0-1.1,0.9-2,2-2H26z"/>
			<path id="XMLID_9734_" class="st1" d="M4,18c0,0,3,7,9,7s11-7,15-7v-5c0-1.1-0.9-2-2-2H6c-1.1,0-2,0.9-2,2V18z"/>
			<path id="XMLID_3156_" class="st3" d="M22,11h4c1.1,0,2,0.9,2,2v14c0,1.1-0.9,2-2,2H6c-1.1,0-2-0.9-2-2V13c0-1.1,0.9-2,2-2h4"/>
			<g id="XMLID_3155_">
				<g id="XMLID_137_">
					<path id="XMLID_140_" class="st16" d="M4,18c0,0,0.2,0.3,0.4,0.9"/>
					<path id="XMLID_139_" class="st17" d="M6.7,22c1.5,1.6,3.6,3,6.3,3c4.7,0,8.8-4.3,12.2-6.1"/>
					<path id="XMLID_138_" class="st16" d="M27,18.1c0.3-0.1,0.7-0.1,1-0.1"/>
				</g>
			</g>
			<circle id="XMLID_3149_" class="st8" cx="7" cy="14" r="1"/>
			<circle id="XMLID_3148_" class="st8" cx="25" cy="26" r="1"/>
		</g>
		<g id="XMLID_3096_">
			<circle id="XMLID_9736_" class="st2" cx="16" cy="9" r="6"/>
			<circle id="XMLID_3145_" class="st3" cx="16" cy="9" r="6"/>
			<line id="XMLID_3144_" class="st3" x1="16" y1="15" x2="16" y2="19"/>
		</g>
	</g>
</g>
</svg>
