<?xml version="1.0" encoding="utf-8"?>
<!-- Generator: Adobe Illustrator 19.1.1, SVG Export Plug-In . SVG Version: 6.00 Build 0)  -->
<svg version="1.1" id="icons" xmlns="http://www.w3.org/2000/svg" xmlns:xlink="http://www.w3.org/1999/xlink" x="0px" y="0px"
	 width="128px" height="128px" viewBox="0 0 128 128" style="enable-background:new 0 0 128 128;" xml:space="preserve">
<style type="text/css">
	.st0{clip-path:url(#XMLID_2_);}
	.st1{fill:#A1A8AF;}
	.st2{fill:none;stroke:#303338;stroke-width:8;stroke-linecap:round;stroke-linejoin:round;stroke-miterlimit:10;}
	.st3{clip-path:url(#XMLID_3_);}
	.st4{clip-path:url(#XMLID_4_);}
	.st5{clip-path:url(#XMLID_5_);}
	.st6{clip-path:url(#XMLID_6_);}
	.st7{clip-path:url(#XMLID_7_);}
	.st8{clip-path:url(#XMLID_8_);}
	.st9{clip-path:url(#XMLID_9_);}
	.st10{clip-path:url(#XMLID_10_);}
	.st11{fill:#303338;}
	.st12{clip-path:url(#XMLID_11_);}
	.st13{clip-path:url(#XMLID_12_);}
	.st14{clip-path:url(#XMLID_13_);}
	.st15{clip-path:url(#XMLID_14_);}
	.st16{clip-path:url(#XMLID_15_);}
	.st17{clip-path:url(#XMLID_16_);}
	.st18{fill:#CBD1D3;}
	.st19{clip-path:url(#XMLID_17_);}
	.st20{clip-path:url(#XMLID_18_);}
	.st21{clip-path:url(#XMLID_19_);}
	.st22{clip-path:url(#XMLID_20_);}
	.st23{clip-path:url(#XMLID_21_);}
	.st24{fill:none;stroke:#303338;stroke-width:8;stroke-linecap:round;stroke-miterlimit:10;}
	.st25{clip-path:url(#XMLID_22_);}
	.st26{clip-path:url(#XMLID_23_);}
	.st27{clip-path:url(#XMLID_24_);}
	.st28{clip-path:url(#XMLID_25_);}
</style>
<g id="XMLID_11083_">
	<defs>
		<rect id="XMLID_11084_" width="128" height="128"/>
	</defs>
	<clipPath id="XMLID_2_">
		<use xlink:href="#XMLID_11084_"  style="overflow:visible;"/>
	</clipPath>
	<g id="XMLID_11085_" class="st0">
		<path id="XMLID_11091_" class="st1" d="M76,72v12c0,4.4,3.6,8,8,8h8c8.8,0,16,7.2,16,16v8H20v-8c0-8.8,7.2-16,16-16h8
			c4.4,0,8-3.6,8-8V72H76z"/>
		<ellipse id="XMLID_11090_" class="st1" cx="64" cy="44" rx="24" ry="32"/>
		<ellipse id="XMLID_11089_" class="st2" cx="64" cy="44" rx="24" ry="32"/>
		<path id="XMLID_11088_" class="st2" d="M76,72v12c0,4.4,3.6,8,8,8h8c8.8,0,16,7.2,16,16v8H20v-8c0-8.8,7.2-16,16-16h8
			c4.4,0,8-3.6,8-8V72"/>
		<path id="XMLID_11087_" class="st2" d="M80,92c0,4.4-7.2,8-16,8s-16-3.6-16-8"/>
		<line id="XMLID_11086_" class="st2" x1="84" y1="104" x2="92" y2="104"/>
	</g>
</g>
</svg>
