<?xml version="1.0" encoding="utf-8"?>
<!-- Generator: Adobe Illustrator 19.1.1, SVG Export Plug-In . SVG Version: 6.00 Build 0)  -->
<svg version="1.1" id="icons" xmlns="http://www.w3.org/2000/svg" xmlns:xlink="http://www.w3.org/1999/xlink" x="0px" y="0px"
	 width="32px" height="32px" viewBox="0 0 32 32" style="enable-background:new 0 0 32 32;" xml:space="preserve">
<style type="text/css">
	.st0{clip-path:url(#XMLID_2_);}
	.st1{fill:#A1A8AF;}
	.st2{fill:#7C8184;}
	.st3{fill:none;stroke:#303338;stroke-width:2;stroke-linecap:round;stroke-linejoin:round;stroke-miterlimit:10;}
	.st4{fill:#303338;}
	.st5{clip-path:url(#XMLID_3_);}
	.st6{clip-path:url(#XMLID_4_);}
	.st7{fill:none;stroke:#303338;stroke-width:2;stroke-linecap:round;stroke-miterlimit:10;}
	.st8{clip-path:url(#XMLID_5_);}
	.st9{clip-path:url(#XMLID_6_);}
	.st10{clip-path:url(#XMLID_7_);}
	.st11{clip-path:url(#XMLID_8_);}
	.st12{clip-path:url(#XMLID_9_);}
	.st13{clip-path:url(#XMLID_10_);}
	.st14{clip-path:url(#XMLID_11_);}
	.st15{fill:none;stroke:#303338;stroke-width:2;stroke-miterlimit:10;}
	.st16{clip-path:url(#XMLID_12_);}
	.st17{clip-path:url(#XMLID_13_);}
	.st18{clip-path:url(#XMLID_14_);}
	.st19{clip-path:url(#XMLID_15_);}
	.st20{fill:#CBD1D3;}
	.st21{clip-path:url(#XMLID_16_);}
	.st22{clip-path:url(#XMLID_17_);}
	.st23{clip-path:url(#XMLID_18_);}
	.st24{clip-path:url(#XMLID_19_);}
	.st25{clip-path:url(#XMLID_20_);}
	.st26{clip-path:url(#XMLID_21_);}
	.st27{clip-path:url(#XMLID_22_);}
	.st28{clip-path:url(#XMLID_23_);}
	.st29{clip-path:url(#XMLID_24_);}
	.st30{clip-path:url(#XMLID_25_);}
	.st31{clip-path:url(#XMLID_26_);}
	.st32{clip-path:url(#XMLID_27_);}
	.st33{clip-path:url(#XMLID_28_);}
	.st34{clip-path:url(#XMLID_29_);}
	.st35{clip-path:url(#XMLID_30_);}
	.st36{clip-path:url(#XMLID_31_);}
	.st37{clip-path:url(#XMLID_32_);}
	.st38{clip-path:url(#XMLID_33_);}
	.st39{clip-path:url(#XMLID_34_);}
	.st40{clip-path:url(#XMLID_35_);}
	.st41{clip-path:url(#XMLID_36_);}
	.st42{clip-path:url(#XMLID_37_);}
	.st43{clip-path:url(#XMLID_38_);}
	.st44{clip-path:url(#XMLID_39_);}
	.st45{clip-path:url(#XMLID_40_);}
	.st46{clip-path:url(#XMLID_41_);}
</style>
<g id="XMLID_7030_">
	<defs>
		<rect id="XMLID_3931_" width="32" height="32"/>
	</defs>
	<clipPath id="XMLID_2_">
		<use xlink:href="#XMLID_3931_"  style="overflow:visible;"/>
	</clipPath>
	<g id="XMLID_1663_" class="st0">
		<path id="XMLID_9634_" class="st1" d="M27,28H5c-1.1,0-2-0.9-2-2V8c0-1.1,0.9-2,2-2h22c1.1,0,2,0.9,2,2v18C29,27.1,28.1,28,27,28z
			"/>
		<path id="XMLID_9633_" class="st2" d="M3,12V8c0-1.1,0.9-2,2-2h22c1.1,0,2,0.9,2,2v4H3z"/>
		<path id="XMLID_1684_" class="st3" d="M27,28H5c-1.1,0-2-0.9-2-2V8c0-1.1,0.9-2,2-2h22c1.1,0,2,0.9,2,2v18C29,27.1,28.1,28,27,28z
			"/>
		<line id="XMLID_1683_" class="st3" x1="3" y1="12" x2="29" y2="12"/>
		<line id="XMLID_1679_" class="st3" x1="9" y1="9" x2="9" y2="4"/>
		<line id="XMLID_1678_" class="st3" x1="23" y1="9" x2="23" y2="4"/>
		<g id="XMLID_1667_">
			<line id="XMLID_1677_" class="st7" x1="12" y1="20" x2="20" y2="20"/>
		</g>
	</g>
</g>
</svg>
