<?xml version="1.0" encoding="utf-8"?>
<!-- Generator: Adobe Illustrator 19.1.1, SVG Export Plug-In . SVG Version: 6.00 Build 0)  -->
<svg version="1.1" id="icons" xmlns="http://www.w3.org/2000/svg" xmlns:xlink="http://www.w3.org/1999/xlink" x="0px" y="0px"
	 width="64px" height="64px" viewBox="0 0 64 64" style="enable-background:new 0 0 64 64;" xml:space="preserve">
<style type="text/css">
	.st0{clip-path:url(#XMLID_2_);}
	.st1{fill:none;stroke:#303338;stroke-width:4;stroke-linecap:round;stroke-linejoin:round;stroke-miterlimit:10;}
	.st2{clip-path:url(#XMLID_3_);}
	.st3{clip-path:url(#XMLID_4_);}
	.st4{clip-path:url(#XMLID_5_);}
	.st5{clip-path:url(#XMLID_6_);}
	.st6{clip-path:url(#XMLID_7_);}
	.st7{clip-path:url(#XMLID_8_);}
	.st8{clip-path:url(#XMLID_9_);}
	.st9{clip-path:url(#XMLID_10_);}
	.st10{fill:#303338;}
	.st11{clip-path:url(#XMLID_11_);}
	.st12{clip-path:url(#XMLID_12_);}
	.st13{clip-path:url(#XMLID_13_);}
	.st14{clip-path:url(#XMLID_14_);}
	.st15{clip-path:url(#XMLID_15_);}
	.st16{clip-path:url(#XMLID_16_);}
	.st17{clip-path:url(#XMLID_17_);}
	.st18{clip-path:url(#XMLID_18_);}
	.st19{clip-path:url(#XMLID_19_);}
	.st20{clip-path:url(#XMLID_20_);}
	.st21{clip-path:url(#XMLID_21_);}
	.st22{fill:none;stroke:#303338;stroke-width:4;stroke-linecap:round;stroke-miterlimit:10;}
	.st23{clip-path:url(#XMLID_22_);}
	.st24{clip-path:url(#XMLID_23_);}
	.st25{clip-path:url(#XMLID_24_);}
	.st26{clip-path:url(#XMLID_25_);}
</style>
<g id="XMLID_12435_">
	<defs>
		<rect id="XMLID_12436_" width="64" height="64"/>
	</defs>
	<clipPath id="XMLID_2_">
		<use xlink:href="#XMLID_12436_"  style="overflow:visible;"/>
	</clipPath>
	<g id="XMLID_12437_" class="st0">
		<ellipse id="XMLID_12441_" class="st1" cx="32" cy="22" rx="12" ry="16"/>
		<path id="XMLID_12440_" class="st1" d="M38,36v6c0,2.2,1.8,4,4,4h4c4.4,0,8,3.6,8,8v4H10v-4c0-4.4,3.6-8,8-8h4c2.2,0,4-1.8,4-4v-6
			"/>
		<path id="XMLID_12439_" class="st1" d="M40,46c0,2.2-3.6,4-8,4s-8-1.8-8-4"/>
		<polyline id="XMLID_12438_" class="st1" points="28,22 32,26 36,18 		"/>
	</g>
</g>
</svg>
