<?xml version="1.0" encoding="utf-8"?>
<!-- Generator: Adobe Illustrator 19.1.1, SVG Export Plug-In . SVG Version: 6.00 Build 0)  -->
<svg version="1.1" id="icons" xmlns="http://www.w3.org/2000/svg" xmlns:xlink="http://www.w3.org/1999/xlink" x="0px" y="0px"
	 width="128px" height="128px" viewBox="0 0 128 128" style="enable-background:new 0 0 128 128;" xml:space="preserve">
<style type="text/css">
	.st0{clip-path:url(#XMLID_12_);}
	.st1{fill:#A1A8AF;}
	.st2{fill:none;stroke:#303338;stroke-width:8;stroke-linecap:round;stroke-linejoin:round;stroke-miterlimit:10;}
	.st3{clip-path:url(#XMLID_13_);}
	.st4{fill:#7C8184;}
	.st5{fill:none;stroke:#303338;stroke-width:8;stroke-linejoin:round;stroke-miterlimit:10;}
	.st6{clip-path:url(#XMLID_14_);}
	.st7{clip-path:url(#XMLID_15_);}
	.st8{fill:#CBD1D3;}
	.st9{fill:#303338;}
	.st10{clip-path:url(#XMLID_16_);}
	.st11{fill:none;stroke:#303338;stroke-width:8;stroke-linecap:round;stroke-linejoin:round;}
	.st12{fill:none;stroke:#303338;stroke-width:8;stroke-linecap:round;stroke-linejoin:round;stroke-dasharray:7.6661,15.3322;}
	.st13{clip-path:url(#XMLID_17_);}
	.st14{clip-path:url(#XMLID_18_);}
	.st15{clip-path:url(#XMLID_19_);}
	.st16{clip-path:url(#XMLID_20_);}
	.st17{clip-path:url(#XMLID_31_);}
	.st18{clip-path:url(#XMLID_32_);}
	.st19{clip-path:url(#XMLID_33_);}
	.st20{clip-path:url(#XMLID_34_);}
	.st21{clip-path:url(#XMLID_35_);}
	.st22{clip-path:url(#XMLID_36_);}
	.st23{clip-path:url(#XMLID_37_);}
	.st24{clip-path:url(#XMLID_38_);}
	.st25{fill:none;stroke:#303338;stroke-width:8;stroke-linecap:round;stroke-miterlimit:10;}
	.st26{clip-path:url(#XMLID_39_);}
	.st27{clip-path:url(#XMLID_40_);}
	.st28{clip-path:url(#XMLID_41_);}
	.st29{clip-path:url(#XMLID_42_);}
	.st30{clip-path:url(#XMLID_43_);}
	.st31{clip-path:url(#XMLID_44_);}
	.st32{clip-path:url(#XMLID_45_);}
	.st33{clip-path:url(#XMLID_46_);}
	.st34{clip-path:url(#XMLID_47_);}
	.st35{clip-path:url(#XMLID_48_);}
	.st36{clip-path:url(#XMLID_49_);}
	.st37{clip-path:url(#XMLID_50_);}
	.st38{clip-path:url(#XMLID_51_);}
	.st39{clip-path:url(#XMLID_52_);}
	.st40{clip-path:url(#XMLID_53_);}
	.st41{clip-path:url(#XMLID_54_);}
	.st42{clip-path:url(#XMLID_55_);}
	.st43{clip-path:url(#XMLID_56_);}
	.st44{clip-path:url(#XMLID_57_);}
	.st45{clip-path:url(#XMLID_58_);}
	.st46{clip-path:url(#XMLID_59_);}
	.st47{clip-path:url(#XMLID_60_);}
	.st48{clip-path:url(#XMLID_61_);}
	.st49{clip-path:url(#XMLID_62_);}
	.st50{clip-path:url(#XMLID_63_);}
	.st51{clip-path:url(#XMLID_64_);}
	.st52{clip-path:url(#XMLID_65_);}
	.st53{clip-path:url(#XMLID_66_);}
</style>
<g id="XMLID_1997_">
	<defs>
		<rect id="XMLID_1998_" width="128" height="128"/>
	</defs>
	<clipPath id="XMLID_12_">
		<use xlink:href="#XMLID_1998_"  style="overflow:visible;"/>
	</clipPath>
	<g id="XMLID_1999_" class="st0">
		<g id="XMLID_2006_">
			<path id="XMLID_2012_" class="st8" d="M104,44c4.4,0,8,3.6,8,8v56c0,4.4-3.6,8-8,8H24c-4.4,0-8-3.6-8-8V52c0-4.4,3.6-8,8-8H104z"
				/>
			<path id="XMLID_2011_" class="st4" d="M16,72c0,0,12.1,28,36,28s44.1-28,60-28V52c0-4.4-3.6-8-8-8H24c-4.4,0-8,3.6-8,8V72z"/>
			<path id="XMLID_2010_" class="st2" d="M88,44h16c4.4,0,8,3.6,8,8v56c0,4.4-3.6,8-8,8H24c-4.4,0-8-3.6-8-8V52c0-4.4,3.6-8,8-8h16"
				/>
			<path id="XMLID_2009_" class="st2" d="M16,72c0,0,12.1,28,36,28s44.1-28,60-28"/>
			<circle id="XMLID_2008_" class="st9" cx="28" cy="56" r="4"/>
			<circle id="XMLID_2007_" class="st9" cx="100" cy="104" r="4"/>
		</g>
		<g id="XMLID_2000_">
			<path id="XMLID_2003_" class="st1" d="M64,12c-13.3,0-24,10.7-24,24c0,16,24,40,24,40s24-24,24-40C88,22.7,77.3,12,64,12z M64,44
				c-4.4,0-8-3.6-8-8s3.6-8,8-8s8,3.6,8,8S68.4,44,64,44z"/>
			<path id="XMLID_2002_" class="st2" d="M64,76c0,0,24-24,24-40c0-13.3-10.7-24-24-24S40,22.7,40,36C40,52,64,76,64,76z"/>
			<circle id="XMLID_2001_" class="st2" cx="64" cy="36" r="8"/>
		</g>
	</g>
</g>
</svg>
