<?xml version="1.0" encoding="utf-8"?>
<!-- Generator: Adobe Illustrator 19.1.1, SVG Export Plug-In . SVG Version: 6.00 Build 0)  -->
<svg version="1.1" id="icons" xmlns="http://www.w3.org/2000/svg" xmlns:xlink="http://www.w3.org/1999/xlink" x="0px" y="0px"
	 width="128px" height="128px" viewBox="0 0 128 128" style="enable-background:new 0 0 128 128;" xml:space="preserve">
<style type="text/css">
	.st0{clip-path:url(#XMLID_12_);}
	.st1{fill:#A1A8AF;}
	.st2{fill:none;stroke:#303338;stroke-width:8;stroke-linecap:round;stroke-linejoin:round;stroke-miterlimit:10;}
	.st3{clip-path:url(#XMLID_13_);}
	.st4{fill:#7C8184;}
	.st5{fill:none;stroke:#303338;stroke-width:8;stroke-linejoin:round;stroke-miterlimit:10;}
	.st6{clip-path:url(#XMLID_14_);}
	.st7{clip-path:url(#XMLID_15_);}
	.st8{fill:#CBD1D3;}
	.st9{fill:#303338;}
	.st10{clip-path:url(#XMLID_16_);}
	.st11{fill:none;stroke:#303338;stroke-width:8;stroke-linecap:round;stroke-linejoin:round;}
	.st12{fill:none;stroke:#303338;stroke-width:8;stroke-linecap:round;stroke-linejoin:round;stroke-dasharray:7.6661,15.3322;}
	.st13{clip-path:url(#XMLID_17_);}
	.st14{clip-path:url(#XMLID_18_);}
	.st15{clip-path:url(#XMLID_19_);}
	.st16{clip-path:url(#XMLID_20_);}
	.st17{clip-path:url(#XMLID_31_);}
	.st18{clip-path:url(#XMLID_32_);}
	.st19{clip-path:url(#XMLID_33_);}
	.st20{clip-path:url(#XMLID_34_);}
	.st21{clip-path:url(#XMLID_35_);}
	.st22{clip-path:url(#XMLID_36_);}
	.st23{clip-path:url(#XMLID_37_);}
	.st24{clip-path:url(#XMLID_38_);}
	.st25{fill:none;stroke:#303338;stroke-width:8;stroke-linecap:round;stroke-miterlimit:10;}
	.st26{clip-path:url(#XMLID_39_);}
	.st27{clip-path:url(#XMLID_40_);}
	.st28{clip-path:url(#XMLID_41_);}
	.st29{clip-path:url(#XMLID_42_);}
	.st30{clip-path:url(#XMLID_43_);}
	.st31{clip-path:url(#XMLID_44_);}
	.st32{clip-path:url(#XMLID_45_);}
	.st33{clip-path:url(#XMLID_46_);}
	.st34{clip-path:url(#XMLID_47_);}
	.st35{clip-path:url(#XMLID_48_);}
	.st36{clip-path:url(#XMLID_49_);}
	.st37{clip-path:url(#XMLID_50_);}
	.st38{clip-path:url(#XMLID_51_);}
	.st39{clip-path:url(#XMLID_52_);}
	.st40{clip-path:url(#XMLID_53_);}
	.st41{clip-path:url(#XMLID_54_);}
	.st42{clip-path:url(#XMLID_55_);}
	.st43{clip-path:url(#XMLID_56_);}
	.st44{clip-path:url(#XMLID_57_);}
	.st45{clip-path:url(#XMLID_58_);}
	.st46{clip-path:url(#XMLID_59_);}
	.st47{clip-path:url(#XMLID_60_);}
	.st48{clip-path:url(#XMLID_61_);}
	.st49{clip-path:url(#XMLID_62_);}
	.st50{clip-path:url(#XMLID_63_);}
	.st51{clip-path:url(#XMLID_64_);}
	.st52{clip-path:url(#XMLID_65_);}
	.st53{clip-path:url(#XMLID_66_);}
</style>
<g id="XMLID_2013_">
	<defs>
		<rect id="XMLID_2014_" width="128" height="128"/>
	</defs>
	<clipPath id="XMLID_12_">
		<use xlink:href="#XMLID_2014_"  style="overflow:visible;"/>
	</clipPath>
	<g id="XMLID_2015_" class="st0">
		<ellipse id="XMLID_2023_" class="st4" cx="64" cy="100" rx="44" ry="16"/>
		<g id="XMLID_2017_">
			<path id="XMLID_2020_" class="st1" d="M64,12c-19.9,0-36,16.1-36,36c0,23.9,36,52,36,52s36-28.1,36-52C100,28.1,83.9,12,64,12z
				 M64,60c-6.6,0-12-5.4-12-12s5.4-12,12-12s12,5.4,12,12S70.6,60,64,60z"/>
			<path id="XMLID_2019_" class="st2" d="M64,100c0,0,36-28.1,36-52c0-19.9-16.1-36-36-36S28,28.1,28,48C28,71.9,64,100,64,100z"/>
			<circle id="XMLID_2018_" class="st2" cx="64" cy="48" r="12"/>
		</g>
		<path id="XMLID_2016_" class="st5" d="M80,84c16.4,2.3,28,9.2,28,16c0,8.8-19.7,16-44,16s-44-7.2-44-16c0-6.8,11.6-13.7,28-16"/>
	</g>
</g>
</svg>
