<?xml version="1.0" encoding="utf-8"?>
<!-- Generator: Adobe Illustrator 19.1.1, SVG Export Plug-In . SVG Version: 6.00 Build 0)  -->
<svg version="1.1" id="icons" xmlns="http://www.w3.org/2000/svg" xmlns:xlink="http://www.w3.org/1999/xlink" x="0px" y="0px"
	 width="128px" height="128px" viewBox="0 0 128 128" style="enable-background:new 0 0 128 128;" xml:space="preserve">
<style type="text/css">
	.st0{clip-path:url(#XMLID_2_);}
	.st1{fill:#A1A8AF;}
	.st2{fill:#7C8184;}
	.st3{fill:none;stroke:#303338;stroke-width:8;stroke-miterlimit:10;}
	.st4{fill:#303338;}
	.st5{clip-path:url(#XMLID_3_);}
	.st6{clip-path:url(#XMLID_4_);}
	.st7{clip-path:url(#XMLID_5_);}
	.st8{clip-path:url(#XMLID_6_);}
	.st9{clip-path:url(#XMLID_7_);}
	.st10{clip-path:url(#XMLID_11_);}
	.st11{clip-path:url(#XMLID_12_);}
	.st12{clip-path:url(#XMLID_13_);}
	.st13{clip-path:url(#XMLID_14_);}
	.st14{clip-path:url(#XMLID_16_);}
	.st15{clip-path:url(#XMLID_18_);}
	.st16{clip-path:url(#XMLID_20_);}
	.st17{clip-path:url(#XMLID_21_);}
	.st18{clip-path:url(#XMLID_22_);}
	.st19{fill:none;stroke:#303338;stroke-width:8;stroke-linecap:round;stroke-miterlimit:10;}
	.st20{clip-path:url(#XMLID_23_);}
	.st21{fill:#CBD1D3;}
	.st22{fill:none;stroke:#303338;stroke-width:8;stroke-linecap:round;stroke-linejoin:round;stroke-miterlimit:10;}
	.st23{clip-path:url(#XMLID_24_);}
	.st24{clip-path:url(#XMLID_25_);}
	.st25{clip-path:url(#XMLID_26_);}
	.st26{clip-path:url(#XMLID_27_);}
	.st27{clip-path:url(#XMLID_28_);}
	.st28{clip-path:url(#XMLID_29_);}
	.st29{clip-path:url(#XMLID_30_);}
	.st30{clip-path:url(#XMLID_31_);}
	.st31{clip-path:url(#XMLID_32_);}
	.st32{clip-path:url(#XMLID_33_);}
	.st33{clip-path:url(#XMLID_34_);}
	.st34{clip-path:url(#XMLID_35_);}
	.st35{fill:none;stroke:#303338;stroke-width:4;stroke-miterlimit:10;}
	.st36{clip-path:url(#XMLID_36_);}
	.st37{clip-path:url(#XMLID_37_);}
	.st38{clip-path:url(#XMLID_38_);}
	.st39{clip-path:url(#XMLID_39_);}
	.st40{clip-path:url(#XMLID_40_);}
	.st41{clip-path:url(#XMLID_41_);}
	.st42{clip-path:url(#XMLID_42_);}
	.st43{clip-path:url(#XMLID_43_);}
	.st44{clip-path:url(#XMLID_44_);}
	.st45{clip-path:url(#XMLID_45_);}
	.st46{clip-path:url(#XMLID_46_);}
	.st47{clip-path:url(#XMLID_47_);}
</style>
<g id="XMLID_3763_">
	<defs>
		<rect id="XMLID_3764_" width="128" height="128"/>
	</defs>
	<clipPath id="XMLID_2_">
		<use xlink:href="#XMLID_3764_"  style="overflow:visible;"/>
	</clipPath>
	<g id="XMLID_24919_" class="st0">
		<path id="XMLID_3766_" class="st1" d="M108,108H20c-4.4,0-8-3.6-8-8V28c0-4.4,3.6-8,8-8h88c4.4,0,8,3.6,8,8v72
			C116,104.4,112.4,108,108,108z"/>
		<path id="XMLID_3765_" class="st2" d="M12,40V28c0-4.4,3.6-8,8-8h88c4.4,0,8,3.6,8,8v12H12z"/>
		<path id="XMLID_24936_" class="st3" d="M108,108H20c-4.4,0-8-3.6-8-8V28c0-4.4,3.6-8,8-8h88c4.4,0,8,3.6,8,8v72
			C116,104.4,112.4,108,108,108z"/>
		<g id="XMLID_24932_">
			<circle id="XMLID_24935_" class="st4" cx="28" cy="32" r="4"/>
			<circle id="XMLID_24934_" class="st4" cx="40" cy="32" r="4"/>
			<circle id="XMLID_24933_" class="st4" cx="52" cy="32" r="4"/>
		</g>
		<line id="XMLID_24931_" class="st3" x1="12" y1="44" x2="116" y2="44"/>
		<path id="XMLID_24930_" class="st4" d="M100,36H68c-2.2,0-4-1.8-4-4v0c0-2.2,1.8-4,4-4h32c2.2,0,4,1.8,4,4v0
			C104,34.2,102.2,36,100,36z"/>
		<g id="XMLID_24920_">
			<rect id="XMLID_24927_" x="24" y="56" class="st4" width="80" height="8"/>
			<rect id="XMLID_24924_" x="24" y="68" class="st4" width="48" height="28"/>
			<rect id="XMLID_24921_" x="76" y="68" class="st4" width="28" height="28"/>
		</g>
	</g>
</g>
</svg>
